<svg width="381" height="184" xmlns="http://www.w3.org/2000/svg">

 <g>
  <title>Layer 1</title>
  <path d="m25.28113,181.05193c0,0 3,0 8,0c4,0 21,0 48,0c16,0 48,0 79,0c15,0 43.01917,0.9978 69,0c13.02881,-0.50037 38.93762,-4.99915 63,-6c10.99048,-0.45715 30,-1 46,-1c6,0 13.94672,-1.49875 21,-2c2.99243,-0.21268 3,0 4,0l0,0" id="svg_156" stroke-width="6" stroke="#46673D" fill="none"/>
  <path d="m357.28113,170.05193c0,0 0.08582,0.57956 2,0c3.45087,-1.04483 5.79486,-3.22021 9,-6c3.77728,-3.276 7.08398,-6.96017 8,-9c2.20605,-4.91257 2,-8 2,-12c0,-3 -0.82373,-4.48627 -3,-5c-0.97327,-0.22977 -1,0 -1,0c-1,-1 -0.39679,-2.06128 -1,-5c-1.53125,-7.46024 -3.19031,-7.88153 -5,-11c-3.367,-5.802 -6.22888,-9.72961 -11,-14c-2.10754,-1.88635 -3,-2 -3,-2c0,-1 2.29608,-5.45673 0,-11c-0.5412,-1.30656 -3.29352,-7.88138 -6,-15c-1.12384,-2.95586 -2,-2 -1,-2c2,0 -1.71021,-4.04291 -2,-5c-2.08966,-6.90169 -5.73328,-9.23274 -11,-15c-1.90729,-2.08858 -11.35406,-11.9209 -21,-18c-7.56689,-4.76883 -8,-4 -8,-4c-1,-1 -1.724,-3.22273 -5,-7c-6.48615,-7.47861 -10.5166,-12.90366 -23,-19c-9.67792,-4.72629 -14.83551,-5.99399 -24,-7c-2.98212,-0.32735 -6,1 -6,1c-1,0 -1.0979,0.82443 -3,2c-4.25323,2.62866 -7.98163,5.71201 -9,11c-0.75641,3.92783 -1,8 -1,15c0,5 1,6 1,5c0,-1 -1.11835,-1.47186 -2,-1c-3.17889,1.70131 -4,7 -5,12c0,0 0.97327,0.77025 0,1c-2.17627,0.51375 -3.22272,-3.72398 -7,-7c-1.06836,-0.92659 -9.73358,-5.60582 -16,-8c-10.65088,-4.06932 -20,-3 -20,-3c0,1 0,2 -1,2c-3,0 -4.01361,-0.32993 -8,0c-6.06201,0.50171 -7.71198,2.98163 -13,4c-0.98193,0.1891 -1.85272,-2.1731 -3,-3c-3.62799,-2.6149 -8,-3 -11,-3c-10,0 -21.24402,-0.83868 -26,1c-5.43866,2.10262 -6,6 -6,7c0,1 -3,1 -7,1c-5,0 -20.62183,-2.22191 -35,3c-11.77728,4.27731 -15.48041,8.63567 -17,18c-0.96112,5.92253 10.77374,14.22884 8,20c-0.86639,1.80261 -3.64752,-1.97252 -8,-3c-4.86627,-1.14876 -7.58582,-1.41422 -9,0c-2.12134,2.12132 1,7 1,12c0,4 0.6131,4.9176 -2,6c-4.61938,1.91342 -7.05603,-0.37601 -15,1c-9.08429,1.57352 -16.513,3.59399 -18,6c-3.32501,5.37997 -0.54022,9.84235 2,18c1.22583,3.93668 0.96936,3.91232 -2,5c-5.05658,1.85226 -9.41589,4.76108 -11,8c-1.38934,2.84073 -2,7 0,13c1,3 5,9 5,10c0,1 0,2 -1,3c0,0 0,1 0,2c0,1 0,2 1,3c0,0 0.96857,1.41208 3,5c0.69678,1.23065 -0.41418,3.58578 1,5c0.70709,0.70709 2,2 2,2c2,1 3,1 5,1c2,0 3,1 4,1c0,0 0.07611,-0.38269 1,0c1.30658,0.5412 2,1 2,1l0,0l1,0" id="svg_157" stroke-width="6" stroke="#46673D" fill="none"/>
  <path d="m83.28113,109.05193c0,0 0.25653,-0.203 1,1c1.66254,2.69 1.61731,4.07611 2,5c0.5412,1.30655 1,1 1,1c1,1 4.19409,2.88855 7,8c2.15204,3.92029 3,5 4,5c1,0 1,0 1,-1c0,0 1.07611,0.38269 2,0c1.30658,-0.5412 2,-2 3,-2l2,-2" id="svg_158" stroke-width="6" stroke="#46673D" fill="none"/>
  <path d="m181.28113,79.05193c0,0 0,-1 3,-2c3,-1 3.95331,-2.49904 12,-3c3.99225,-0.24855 20,-1 24,-1c3,0 3,0 3,2c0,1 0,2 0,2c0,1 0,2 0,3c0,1 0,1 1,2l0,0l1,1" id="svg_159" stroke-width="6" stroke="#46673D" fill="none"/>
  <path d="m253.28113,135.05193c1,0 4.69342,3.4588 6,4c5.54327,2.29611 9,0 12,0c8,0 15.15222,-1.23462 17,-2c1.30658,-0.5412 0.29291,-1.29291 1,-2c0.70709,-0.70709 2,0 2,-1c0,0 0,-1 0,-1l0,-1l0,0" id="svg_160" stroke-width="6" stroke="#46673D" fill="none"/>
 </g>
</svg>