<svg width="478" height="230" xmlns="http://www.w3.org/2000/svg">

 <g>
  <title>Layer 1</title>
  <path d="m24.03128,226.49628c0,0 4,0 8,0c4,0 16,0 35,0c12,0 38,0 69,0c16,0 50,0 85,0c16,0 49.02356,0.59833 82,-1c15.01569,-0.72778 43,-2 68,-2c11,0 30,0 46,0c7,0 20,0 30,0l3,0l1,0l0,0" id="svg_150" stroke-width="6" stroke="#46673D" fill="none"/>
  <path d="m23.03128,223.49628c0,-1 0.4595,-2.0535 0,-4c-0.51373,-2.17624 -3.11215,-5.9183 -6,-10c-4.16495,-5.88672 -7.75751,-10.66415 -11,-19c-2.63922,-6.78488 -3,-9 -3,-14c0,-3 -0.30655,-6.4588 1,-7c0.92389,-0.38269 1,0 2,0c0,0 0,0 0,0c1,0 1,-1 1,-4c0,-3 0.21091,-5.02335 -1,-15c-1.70398,-14.03911 -3,-21 -3,-33c0,-6 1.70847,-8.67261 8,-11c11.60098,-4.29149 18.93317,-4.30594 32,-7c10.95004,-2.25763 15.78381,-2.42006 19,-5c1.74423,-1.39917 1,-4 1,-4c2,-1 3,-1 9,-1c4,0 5,0 9,0c2,0 2.29291,0.70711 3,0c0.70709,-0.70711 1.79892,-4.02042 2,-5c1.53128,-7.46024 6.18848,-18.52217 9,-22c4.02551,-4.97949 7,-5 7,-5c3,0 6.03629,0.26694 7,0c5.61938,-1.55647 10.65591,-7.38902 14,-10c4.59598,-3.58844 11.52814,-8.11833 12,-9c3.40262,-6.35785 14.04733,-8.93788 18,-12c10.12375,-7.84283 19,-13 20,-13c0,0 3.61383,2.297 6,5c2.95969,3.35266 5.92398,7.03986 7,9c2.80591,5.11145 5,9 6,10c1,1 0.75531,0.868 3,-3c1.80972,-3.11848 5.6236,-8.39781 13,-15c4.77115,-4.27039 19.65219,-13.98657 37,-16c6.95331,-0.80702 20.50812,-1.28551 32,4c5.29749,2.43651 14.71198,6.98163 20,8c0.98193,0.1891 2,0 6,0c1,0 5,0 12,0c4,0 14.0451,-0.1516 21,2c3.021,0.93459 5,3 5,5c0,1 -0.30658,2.4588 1,3c0.92389,0.38269 3,1 7,1c2,0 10.099,-0.72327 20,1c4.06201,0.707 12.3764,2.08031 14,6c1.53076,3.69551 -1,8 -1,11c0,1 2,2 7,4c0,0 7.90326,1.38042 19,4c4.96259,1.17151 17.15082,3.87744 22,10c1.38831,1.75288 3.49829,6.93796 4,13c0.24744,2.98978 1.43799,8.62042 8,14c2.78833,2.28587 12.63989,5.70923 20,9c2.88684,1.29074 8.95514,2.54915 10,6c0.57959,1.91418 1,8 1,16c0,4 -1.60828,11.18726 0,18c0.51373,2.17624 1.77026,4.02676 2,5c0.51373,2.17624 1.26959,5.69363 -3,12c-2.37854,3.51318 -6,6 -9,12c0,0 -0.76538,2.15225 0,4c1.0824,2.61313 3,3 3,3c0,1 0,4 0,8c0,2 1.49347,6.87857 2,10c0.16016,0.98709 0.61731,2.07611 1,3c0.5412,1.30655 1,1 1,2c0,2 0,3 0,6c0,1 0.9021,4.82443 -1,6c-0.85065,0.52573 -1.85272,2.1731 -3,3c-1.81396,1.30746 -2,2 -3,3c0,0 0,1 -1,1c0,0 -1,1 -3,1c0,0 -1,0 -3,1c0,0 -2,0 -3,0c-2,0 -3,0 -4,0c0,0 -1,1 -1,1c0,0 0,0 -1,0l0,1l0,0l0,0" id="svg_151" stroke-width="6" stroke="#46673D" fill="none"/>
  <path d="m72.03128,150.49628c0,0 0,1 -1,2c-1,1 -2,3 -2,3c0,1 0,1 0,2c0,2 2,4 5,7c0,0 1,1 1,1c1,0 1,0 3,0c3,0 3,0 5,0c1,0 2,0 2,0c1,0 2,0 2,0l1,-1l2,-2l1,-2" id="svg_152" stroke-width="6" stroke="#46673D" fill="none"/>
  <path d="m188.03128,76.49628c0,0 0.85272,-0.1731 2,-1c3.62799,-2.6149 6,-3 10,-5c4,-2 8.65945,-4.91205 21,-9c11.74185,-3.88962 18,-4 19,-4c0,0 0,0 0,0c2,0 4,0 8,0c4,0 6.177,-0.65482 11,1c4.2301,1.45137 5.69342,3.4588 7,4c0.92389,0.38269 1,1 1,1l0,0" id="svg_153" stroke-width="6" stroke="#46673D" fill="none"/>
  <path d="m396.03128,128.49628c0,1 1.49756,3.9258 2,9c0.19708,1.99026 0,2 0,2c-1,1 -2.04498,0.26691 -8,1c-4.09222,0.50378 -6.75714,1.98691 -13,3c-0.98706,0.16019 -0.61731,-0.07611 -1,-1c-0.5412,-1.30655 -1,-2 -2,-2c-4,0 -6.05353,-0.4595 -8,0c-2.17627,0.51373 -2,2 -2,2c-1,1 -1,2 -2,3l0,1l0,1" id="svg_154" stroke-width="6" stroke="#46673D" fill="none"/>
  <path d="m258.03128,187.49628c-1,0 -2.15222,0.76538 -4,0c-2.6131,-1.0824 -6.1731,-5.85272 -7,-7c-5.2298,-7.25598 -8.29291,-14.29291 -9,-15c-0.70709,-0.70709 0,-1 -1,-2c0,0 -1,-3 -1,-3c-1,-2 -0.29291,-3.29291 -1,-4c-0.70709,-0.70709 -1,-1 -1,-1c0,0 0,0 -1,0c-1,0 -3,0 -3,0l-2,0l-2,0" id="svg_155" stroke-width="6" stroke="#46673D" fill="none"/>
 </g>
</svg>