<svg width="198" height="197" xmlns="http://www.w3.org/2000/svg">

 <g>
  <title>Layer 1</title>
  <path d="m85.10861,73c0,0 -1,0 -1,-1c0,-2 0.48056,-3.03874 0,-6c-0.50653,-3.12144 -2,-4 -3,-7c-1,-3 -0.0979,-4.82443 -2,-6c-0.85065,-0.52573 -1.2565,-1.797 -2,-3c-1.66251,-2.68999 -3.14429,-6.93414 -4,-9c-1.21014,-2.92157 -3.3764,-4.08031 -5,-8c-0.38269,-0.92387 -1,-3 -3,-5c0,0 -4,-4 -5,-5c-1,-1 -1.90634,-2.10341 -3,-3c-2.78833,-2.28587 -4.21167,-2.71413 -7,-5c-2.18735,-1.7932 -5,-6 -8,-9c0,0 -1.29291,-1.29289 -2,-2c-0.70709,-0.70711 -2,0 -3,0c0,0 -1,-1 -2,-1c-1,0 -2,0 -2,0c-1,0 -1.69345,0.4588 -3,1c-0.92389,0.38269 -1.29291,0.29289 -2,1c-0.70709,0.70711 0,1 0,1c-1,1 -1,1 -1,1c0,2 -0.70709,2.29289 0,3c0.70709,0.70711 1,1 1,1c0,1 1,1 1,1c1,0 1,0 1,0c0,0 1,0 1,0c1,0 1,0 1,0c0,0 2.29291,-1.29289 3,-2c0.70709,-0.70711 0,-1 0,-1c0,-1 0,-1 0,-2c0,0 0,-1 0,-1c-1,-1 -1,-1 -1,-1c-1,0 -1,0 -1,0c0,-1 -1,-1 -1,-1c0,0 0,0 -1,0c0,0 0,0 -1,0c0,0 0,1 0,1c0,0 0,0 0,1l0,0l0,1l0,0" id="svg_133" stroke-width="6" stroke="#FFAC8D" fill="none"/>
  <path d="m100.10861,74c0,-2 0,-3 0,-3c1,-3 0.51126,-6.02997 1,-10c0.50378,-4.09221 2.49756,-5.9258 3,-11c0.39417,-3.98053 -0.41422,-5.58578 1,-7c0.70709,-0.70711 1.49347,-0.87856 2,-4c0.16019,-0.98709 0.77023,-4.02675 1,-5c0.51373,-2.17625 2,-3 2,-4c0,-1 -0.14804,-2.22836 1,-5c0.5412,-1.30656 2,-3 2,-3c1,-1 2,-2 2,-2c2,-3 1.08032,-4.37642 5,-6c0.92389,-0.38269 2.02673,-1.77025 3,-2c2.17627,-0.51375 2,-1 2,-1c1,0 1,0 2,0c0,0 1,0 1,0c1,0 1,0 2,1c0,0 1,0 1,1c0,0 -0.70709,0.29289 0,1c0.70709,0.70711 1,1 1,1c0,0 0,1 0,1c0,0 -1,1 -1,1c-1,0 -1,0 -2,-1c0,0 0,0 -1,-1c-1,-1 -1,-1 -1,-1c0,0 0,-1 0,-1c0,0 0,0 0,0c1,0 1.29291,-0.70711 2,0c0.70709,0.70711 0,1 0,1c0,0 0,1 0,1c0,0 0,1 0,1c0,0 0,1 0,1c0,0 0,1 0,1c0,0 0,0 0,0c-2,-1 -2,-2 -2,-2c-1,0 -1,0 -1,-1l0,0l0,0" id="svg_134" stroke-width="6" stroke="#FFAC8D" fill="none"/>
  <path d="m80.10861,76c0,0 -0.07611,-0.61731 -1,-1c-1.30655,-0.5412 -0.69345,-1.4588 -2,-2c-0.92389,-0.38269 -3.186,-0.69255 -5,-2c-1.14728,-0.8269 -2,-1 -7,-3c0,0 -0.69345,-0.4588 -2,-1c-1.84775,-0.76537 -2,0 -4,0c-3,0 -3.15225,0.76537 -5,0c-1.30655,-0.5412 -2,-1 -4,-1c0,0 0,0 -1,1c-1,1 -2.1731,0.85274 -3,2c-1.30746,1.814 -1.29291,1.29289 -2,2c-1.41422,1.41422 0,2 -1,4c0,0 0,1 0,4c0,2 0,2 0,4c0,1 0,1 0,3c0,2 -1.53073,3.30449 0,7c0.5412,1.30656 0.69254,1.186 2,3c0.8269,1.14726 1,1 2,2c1,1 2.01498,1.75563 4,2c4.09222,0.50377 4.82376,2.48625 7,3c1.9465,0.4595 3,0 4,0c1,0 1,0 1,0c0,0 -1,0 -1,0c-1,0 -6,0 -10,0c-2,0 -7.13376,-0.14876 -12,1c-2.17624,0.51375 -7,2 -10,3c-3,1 -8.64886,1.19577 -11,5c-0.52573,0.85065 0.17892,3.29871 -3,5c-0.88168,0.47186 -2.69125,4.07181 -4,9c-0.81165,3.05634 -3,8 -4,10c-1,2 -3.49622,5.90778 -4,10c-0.48874,3.97003 -0.49622,6.90778 -1,11c-0.24435,1.98502 0,8 0,15c0,3 1.69254,9.186 3,11c1.65381,2.29453 5,4 7,5c2,1 5.90778,3.49622 10,4c0.99249,0.12219 3.92578,1.49756 9,2c2.98541,0.29562 9,0 15,0c2,0 5,0 8,0c1,0 2.90778,-1.49622 7,-2c0.99249,-0.12219 3,-2 5,-3c2,-1 4.0979,-2.82443 6,-4c0.85065,-0.52573 1,0 2,-1c0,0 0.29291,-0.29291 1,-1c0.70709,-0.70709 1,-1 2,-2c0,0 0,-1 0,-2c0,0 0,0 1,-1c0,0 1,-1 2,-2c0,0 0,-1 1,-1c0,0 0.29291,-0.29291 1,-1c0.70709,-0.70709 0,-1 0,-1l1,-1l0,0l0,0" id="svg_136" stroke-width="6" stroke="#BF7E96" fill="none"/>
  <path d="m102.10861,76c0,0 0,-1 0,-1c1,-1 2.07611,-1.61731 3,-2c2.61313,-1.0824 5.02676,-3.77025 6,-4c4.35248,-1.02748 8.18604,-2.69255 10,-4c1.14728,-0.8269 2,-1 2,-1c1,-1 3,-1 5,-1c3,0 6,0 9,0c2,0 4,2 4,2c1,0 1.47424,1.14935 2,2c1.1756,1.90211 3,2 4,3c1,1 1.61731,3.07613 2,4c0.5412,1.30656 1,3 1,3c0,2 0,4 0,6c0,1 0,1 0,1c0,1 0,1 -2,3c-1,1 -2,1 -2,2c0,1 0,1 -1,1c0,0 -0.29291,0.29289 -1,1c-0.70709,0.70711 -1,1 -1,1c-1,0 -2,0 -2,0c-1,1 -1,1 -2,1c-1,0 -1,0 -2,0c-1,0 -2,0 -3,0c0,0 0,0 -1,1c0,0 1.02582,-0.32036 3,0c3.12146,0.50655 5.96381,2.11586 9,3c3.95868,1.15277 5.87604,1.34315 11,3c3.9231,1.26855 5.41205,0.96855 9,3c2.4613,1.39357 4.20679,2.81265 6,5c2.28589,2.78833 2.93787,4.04735 6,8c3.92139,5.06186 7.61731,9.07611 8,10c2.16479,5.22626 4.81091,6.01804 5,7c1.01837,5.28799 3.48627,10.82376 4,13c1.14874,4.86624 0,9 0,11c0,4 0,7 0,8c0,3 -0.61731,4.07611 -1,5c-1.0824,2.61313 -2.08032,5.3764 -6,7c-1.84778,0.76538 -5.15222,1.23462 -7,2c-1.30658,0.5412 -3,1 -3,1c-4,1 -5,1 -7,1c-6,0 -9,0 -11,0c-2,0 -6,0 -7,0c-1,0 -3,0 -4,0c-2,0 -4,0 -5,0c-4,0 -5,0 -6,0c-1,0 -1.0979,-0.82443 -3,-2c-0.85065,-0.52573 -3.07611,-0.61731 -4,-1c-1.30658,-0.5412 -2.69342,-2.4588 -4,-3c-0.92389,-0.38269 -1.61731,-0.07611 -2,-1c-0.5412,-1.30655 -0.3869,-2.9176 -3,-4c-0.92389,-0.38269 -1,-1 -2,-2c0,0 0,0 0,0c-1,0 -1,-1 -1,-1c0,-1 -1,-1 -1,-1c0,-1 -1,-1 -1,-1c-1,-1 -1,-1 -1,-1c0,-1 -1,-1 0,-1l0,0l0,0" id="svg_137" stroke-width="6" stroke="#BF7E96" fill="none"/>
  <path d="m79.10861,84c0,1 0,2 0,3c0,3 0,5 0,7c0,4 0,10 0,16c0,3 0,10 0,11c0,3 -0.24435,5.01498 0,7c0.50378,4.09222 2,8 2,11c0,2 0.49756,6.92578 1,12c0.09854,0.99515 0.49347,3.87857 1,7c0.16019,0.98709 1,3 1,5c0,1 0,3 0,4c0,1 0.49347,2.87857 1,6c0.16019,0.98709 1.4588,3.69345 2,5c0.38269,0.92389 1,3 2,6c0,0 3,3 4,4c0,0 1,1 3,1c0,0 3,0 6,0c1,0 0.86829,-0.28857 5,-2c2.92157,-1.21014 3.186,-0.69254 5,-2c1.14728,-0.8269 1.49622,-2.90778 2,-7c0.24438,-1.98502 0,-6 0,-9c0,-2 0,-7 0,-11c0,-1 0,-5 0,-9c0,-3 -1.49347,-8.87857 -2,-12c-0.48053,-2.96127 -1.49756,-6.92578 -2,-12c-0.29562,-2.98541 0,-5 0,-10c0,-2 -1,-7 -1,-10c0,-2 0.16019,-4.01291 0,-5c-0.50653,-3.12144 -1.49347,-5.87856 -2,-9c-0.16019,-0.98709 -1,-4 -1,-5c0,0 -0.4588,-0.69344 -1,-2c-0.38269,-0.92387 -0.9176,-0.38687 -2,-3c-0.38269,-0.92387 -2,-2 -2,-3c0,0 -1,-1 -1,-1c-1,-1 -1.07611,-1.61731 -2,-2c-1.30655,-0.5412 -1.29291,-0.29289 -2,-1c-0.70709,-0.70711 -1,-1 -2,-1c-1,0 -1,-1 -2,-1c0,0 -1,0 -1,0c-2,0 -3,0 -3,0c-1,1 -1,1 -2,1c0,0 -1,1 -1,1c-1,0 -1,0 -1,0c0,0 -1,1 -1,1c0,1 -1,1 -1,1c0,1 -1,1 -1,1c0,1 -0.29291,0.29289 -1,1c-0.70709,0.70711 0,2 0,2c-1,1 -1,1 -1,3c0,1 0,1 0,2c0,1 0,1 0,1c0,1 0,1 0,1l0,0l0,1" id="svg_132" stroke-width="6" stroke="#884D58" fill="none"/>
 </g>
</svg>