<svg width="321" height="248" xmlns="http://www.w3.org/2000/svg">

 <g>
  <title>Layer 1</title>
  <path d="m140.12378,184.10211c3,0 6,0 8,0c3,0 9,0 14,0c1,0 5.13376,1.14877 10,0c2.17624,-0.51373 7.17697,-1.34518 12,-3c2.11505,-0.72568 7.92767,-3.23172 14,-5c3.95868,-1.15277 11,-3 14,-4c3,-1 8.22272,-2.724 12,-6c2.13675,-1.85318 9,-6 11,-8c4,-4 8.41364,-7.62531 12,-12c2.28589,-2.78833 5.73328,-7.23273 11,-13c1.90729,-2.08856 7.28857,-7.86829 9,-12c1.21014,-2.92157 2.49756,-8.92578 3,-14c0.19708,-1.99026 1.49756,-4.9258 2,-10c0.19708,-1.99026 0.49756,-6.9258 1,-12c0.39417,-3.98053 0,-6 0,-8c0,-2 -0.45953,-4.0535 0,-6c0.51373,-2.17625 1.48627,-3.82375 2,-6c0.45953,-1.9465 2,-5 2,-6c0,0 0.61731,-1.07613 1,-2c0.5412,-1.30656 1.1731,-1.85274 2,-3c1.30743,-1.814 1.79626,-1.16124 5,-5c1.43274,-1.71675 1,-2 2,-3c0,0 1.18604,-0.69255 3,-2c1.14728,-0.8269 1.69342,-1.4588 3,-2c0.92389,-0.38269 1,-1 2,-1c0,0 1,0 2,0c1,0 1,0 2,0c1,0 3,0 5,0c1,0 2,0 2,0c1,0 2,0 2,0c1,0 2.29291,0.29289 3,1c0.70709,0.70711 2,1 2,1c2,1 2,2 3,2c0,0 0.4588,-0.30656 1,1c0.38269,0.92387 0,1 1,1c0,0 0,1 0,1c0,-1 0,-2 0,-4c0,-2 -2,-4 -2,-9c0,-1 -0.4588,-1.69344 -1,-3c-0.76538,-1.84776 -2.44299,-5.63872 -4,-8c-2.96448,-4.49576 -4,-9 -4,-9c-1,-1 -1,-2 -1,-2c0,0 -1.29291,-2.29289 -2,-3c-0.70709,-0.70711 -1,-1 -2,-1c0,0 -1,-1 -1,-1c-2,-1 -5.02673,-2.77025 -6,-3c-2.17627,-0.51375 -2.05353,-0.5405 -4,-1c-2.17627,-0.51375 -5,-1 -5,-1c-2,0 -3,0 -5,0c-3,0 -5,0 -7,0c-1,0 -2,0 -4,0c-1,0 -3,0 -4,0c-2,0 -3,0 -4,0c-1,0 -4.02673,-0.22975 -5,0c-2.17627,0.51375 -3.797,1.2565 -5,2c-2.69,1.66251 -7,3 -7,3c-4,3 -8.186,3.69255 -10,5c-2.29453,1.65381 -5,4 -6,5c-2,2 -5.14682,3.86325 -7,6c-3.276,3.77727 -4.85272,6.1731 -6,7c-1.814,1.30745 -3.12967,1.88531 -4,3c-3.58844,4.59599 -4.11215,6.9183 -7,11c-2.08246,2.94336 -4.19028,6.88152 -6,10c-1.12234,1.93399 -1.87766,4.06601 -3,6c-1.80972,3.11848 -4.77023,7.02675 -5,8c-1.0275,4.35251 -4.34619,7.70546 -6,10c-2.6149,3.62799 -3.82443,4.09789 -5,6c-0.52573,0.85065 -1,3 -3,5c-3,3 -4.37201,4.3851 -8,7c-1.14728,0.8269 -2.07843,0.78986 -5,2c-2.06586,0.85571 -3.93414,1.14429 -6,2c-2.92157,1.21014 -5.87857,2.49345 -9,3c-1.97418,0.32036 -5.82376,1.48625 -8,2c-2.91974,0.68925 -7.00974,0.80292 -9,1c-5.07422,0.50244 -9,2 -11,2c-3,0 -6.02676,0.77025 -7,1c-2.17624,0.51373 -5.14935,1.47427 -6,2c-1.9021,1.17557 -3,3 -4,4c-2,2 -4.33749,5.31 -6,8c-1.487,2.40601 -3.4588,4.69345 -4,6c-0.76538,1.84775 -1.61731,5.07611 -2,6c-1.0824,2.61313 -2,4 -2,7c0,2 0,5 0,7c0,3 0.83981,7.01291 1,8c0.50653,3.12143 1.75565,7.01498 2,9c0.50378,4.09222 1.61731,5.07611 2,6c0.5412,1.30655 1.42044,2.08582 2,4c1.04483,3.45084 2.69254,4.186 4,6c0.8269,1.14728 2.07611,2.61731 3,3c1.30655,0.5412 2.38687,1.9176 5,3c2.77164,1.14804 6,0 7,0c3,0 6,0 6,0c1,0 2,0 3,0c2,0 4,0 5,0c2,0 3,0 4,0c1,0 1,0 2,0c0,0 1,0 1,-1c0,0 1,0 1,0c0,-2 0,-3 0,-4c0,0 0,0 -1,0l0,0" id="svg_199" stroke-width="6" stroke="#C48157" fill="none"/>
  <path stroke="#8B4D4B" d="m139.12378,189.10211c0,0 0,1.06 0,2.12c0,0 -2.20701,2.13912 -2.4375,3.18c-1.24114,5.60527 -7.73442,10.2878 -9.75,12.72c-1.59347,1.92283 -1.9711,4.32068 -2.4375,5.3c-0.65959,1.38494 -1.42971,3.02389 -2.4375,4.24c-1.59347,1.92283 -1.9711,5.38068 -2.4375,6.36c-1.97876,4.15486 -4.01323,4.55048 -4.875,5.3c-0.86177,0.74952 -1.57573,1.37048 -2.4375,2.12c-1.72357,1.49907 -2.61952,3.68273 -3.65625,4.24c-2.31818,1.2461 -1.21875,3.18 -1.21875,3.18c-1.21875,0 -1.21875,1.06 -2.4375,2.12c0,0 -0.84514,0.48633 -2.4375,1.06c-1.12599,0.40565 -2.4375,1.06 -2.4375,1.06l0,0" id="svg_208" stroke-width="6" fill="none"/>
  <path d="m117.12378,228.10211c0,0 -0.38269,3.07611 0,4c0.5412,1.30655 0.0979,3.82443 2,5c0.85065,0.52573 0.69345,1.4588 2,2c0.92389,0.38269 2.69345,1.4588 4,2c0.92389,0.38269 2.186,0.69254 4,2c1.14728,0.8269 2,1 3,1c0,0 0,1 0,1l1,0l0,0l0,0" id="svg_210" stroke-width="6" stroke="#8B4D4B" fill="none"/>
  <path d="m118.12378,225.10211c0,0 0,0 -3,0c-2,0 -4.82376,-0.48627 -7,-1c-1.9465,-0.4595 -4,0 -6,0c0,0 -1.15225,-0.76538 -3,0c-1.30655,0.5412 -1,1 -4,2l0,0l-1,0" id="svg_211" stroke-width="6" stroke="#8B4D4B" fill="none"/>
  <path d="m176.12378,183.10211c0,1 0.4588,0.69345 1,2c0.76538,1.84775 1,3 1,9c0,2 1,6 1,12c0,2 -0.22977,6.02676 0,7c0.51373,2.17624 1,2 1,3c0,2 1,3 1,4c0,1 0.48627,1.82376 1,4c0.22977,0.97324 0,1 0,1c0,1 0.29291,0.29291 1,1c0.70709,0.70709 0,1 0,1c0,1 -0.2565,0.797 -1,2c-1.66251,2.69 -2.4588,3.69345 -3,5c-0.38269,0.92389 -1,1 -3,3c-1,1 -1,2 -1,2c-1,1 -1,2 -1,2l0,1l-1,0" id="svg_212" stroke-width="6" stroke="#8B4D4B" fill="none"/>
  <path d="m184.12378,228.10211c0,0 0.186,-0.30746 2,1c1.14728,0.8269 2.69345,2.4588 4,3c0.92389,0.38269 1,0 2,1c1,1 1,1 1,1c1,1 2,2 3,3c0,0 0,0 1,1l1,1l0,0" id="svg_213" stroke-width="6" stroke="#8B4D4B" fill="none"/>
  <path d="m184.12378,231.10211c0,0 0.4588,-0.30655 1,1c0.38269,0.92389 0,1 0,3c0,1 -0.70709,2.29291 0,3c0.70709,0.70709 1,0 1,1c0,0 0,1 0,1c0,1 0,2 0,2l0,0" id="svg_214" stroke-width="6" stroke="#8B4D4B" fill="none"/>
  <path d="m272.12378,19.10211c0,1 0,1 0,1c0,0 0,1 0,2c0,0 -0.38269,1.07613 0,2c0.5412,1.30656 1,2 2,2c0,0 0,0 0,0c1,0 2,0 2,0c0,0 0.29291,-0.29289 1,-1c0.70709,-0.70711 1,-1 1,-1c0,-1 0,-1 0,-1c0,-1 0,-1 0,-2c0,0 -1,-1 -1,-2c0,0 0,0 -1,0c0,0 -2,-1 -2,-1c0,-1 -1,-1 -1,-1c-1,0 -1,0 -1,0c-1,0 -1,1 -1,1c0,0 0,1 0,2c0,0 0,0 0,1c0,0 1,0 2,1l1,0l0,0l0,0" id="svg_215" stroke-width="6" stroke="#845335" fill="none"/>
  <path d="m102.12378,111.10211c0,-1 -0.10339,-0.90634 -1,-2c-2.28589,-2.78833 -4.05664,-4.91753 -7,-7c-4.0817,-2.88786 -6.23541,-4.73578 -13,-11c-6.22583,-5.76532 -8.81241,-9.09943 -11,-13c-4.61472,-8.22827 -7.57718,-12.73657 -11,-21c-3.63046,-8.76469 -5.04504,-13.99559 -6,-24c-1.04953,-10.99538 -1,-15 -1,-24c0,-1 1,-2 0,-2c-1,0 0,2 -3,5c-4,4 -6.76859,6.6129 -9,12c-1.57785,3.80925 -1,5 -1,9c0,6 0.06473,9.39784 3,15c2.32053,4.42889 4.82108,8.29869 8,10c0.88168,0.47186 1,1 2,1c0,0 -1.11832,-0.52814 -2,-1c-3.17892,-1.70131 -9,-7 -14,-12c-3,-3 -6.25659,-6.41885 -11,-8c-0.94867,-0.31622 -1,0 -1,0c0,0 0,1 1,3c0,0 2,4 5,10c2,4 6.29773,12.39154 11,20c2.62866,4.25325 4.69345,7.5412 6,7c0.92389,-0.38269 -0.06601,-0.87766 -2,-2c-3.11847,-1.80972 -8.01291,-4.83981 -9,-5c-6.24289,-1.01308 -9,-3 -9,-3c-1,0 0,1 3,4c5,5 7.9379,9.04735 11,13c3.92142,5.06187 8,9 8,9c0,0 -1.31812,-0.59012 -4,-3c-5.80942,-5.22023 -6.11639,-8.03857 -13,-13c-5.44199,-3.92236 -7.82376,-5.48625 -10,-6c-0.97324,-0.22975 -2,0 -2,0c-1,-1 -1,-1 -2,-1c0,0 0,0 0,2c0,4 0,8 0,12c0,10 2.90607,20.0386 5,25c3.82956,9.07382 3.88168,8.47186 3,8c-3.17892,-1.70129 -5,-7 -7,-10c-6,-9 -15,-20 -16,-19c-1,1 4.33749,5.31001 6,8c3.71747,6.01501 11,12 12,13c5,5 9.52222,11.38074 12,14c3.43607,3.63226 5.22021,4.79489 8,8c3.276,3.77728 6.77063,7.25934 9,9c4.59598,3.58844 8.0535,4.5405 10,5c2.17624,0.51373 3,2 3,2c2,1 5,2 5,2c3,1 6,2 6,2c2,1 5,2 5,2c1,0 0.82376,0.48627 3,1c0.97324,0.22977 2,0 2,0c1,0 1,0 1,0l2,0" id="svg_216" stroke-width="6" stroke="#845335" fill="none"/>
  <path d="m222.12378,95.10211c0,0 0,1 0,1c0,2 0.24469,3.132 -2,7c-1.80972,3.11848 -2.9519,5.03264 -5,8c-4.88651,7.07971 -6.86325,10.14682 -9,12c-3.77728,3.276 -5.38062,5.44351 -11,7c-1.92743,0.53387 -4.94342,2.14774 -10,4c-2.96933,1.08768 -5.94348,2.20956 -13,4c-8.93637,2.2674 -13.0451,3.84842 -20,6c-6.04202,1.86917 -8.31,2.33749 -11,4c-1.203,0.7435 -2,1 -2,1c0,-1 -1,-5 -1,-8c0,-4 1,-8 3,-11c2,-3 5.87183,-9.08954 8,-12c3.77945,-5.16873 5,-5 5,-5c0,0 0.77023,0.02676 1,1c0.51373,2.17624 1,2 2,2c0,0 3.79489,-1.22021 7,-4c3.77728,-3.27602 7.93414,-6.14429 10,-7c5.84314,-2.4203 10.1731,-3.14726 11,-2c1.30746,1.814 3,4 3,4c1,0 2,0 2,0c2,-1 2,-1 4,-1c2,0 3.02582,0.32036 5,0c6.24289,-1.01308 8.22272,-3.72398 12,-7c1.06836,-0.92659 1,-1 1,-1l0,-1l1,0l0,0" id="svg_217" stroke-width="6" stroke="#845335" fill="none"/>
  <path d="m311.12378,26.10211c-1,0 -1,0 -1,0c0,0 -1,1 -2,1c0,0 -0.29291,-0.70711 -1,0c-0.70709,0.70711 -0.29291,0.29289 -1,1c-0.70709,0.70711 0.30658,1.4588 -1,2c-0.92389,0.38269 -0.61731,1.07613 -1,2c-0.5412,1.30656 -1,1 -1,1c-1,1 -1,1 -1,1c0,1 -0.61731,1.07613 -1,2c-0.5412,1.30656 -1,1 -1,1c0,0 0.38269,0.07613 0,1c-0.5412,1.30656 -1,1 -1,1c0,0 0,0 2,0c1,0 1,0 2,0c1,0 2,0 2,0c1,0 1,0 1,0c1,0 1,0 1,0c0,0 1,0 1,0c1,1 1,1 2,1c0,0 0,0 1,1c0,0 0,0 0,0c1,0 1,1 1,1c1,0 1,1 1,1c1,0 1,1 1,1c0,0 1,1 1,1c0,0 -0.70709,0.29289 0,1c0.70709,0.70711 1,0 1,0c0,1 0,1 0,0c0,0 0,-1 0,-1c0,-1 0,-1 0,-2c0,0 0,-1 -1,-2c0,0 0,-2 0,-3c0,0 -1,-1 -1,-1c0,-1 0,-1 -1,-2c0,0 0,-1 -1,-1c0,0 0,-1 0,-1c0,-1 -0.29291,-0.29289 -1,-1c-0.70709,-0.70711 0,-1 0,-1c-1,-1 -1,-1 -1,-1c0,0 -0.29291,-0.29289 -1,-1c-0.70709,-0.70711 0,-1 0,-1c0,0 -1,1 -1,1c0,0 -1,1 -1,1c0,0 -1,1 -1,1c0,1 0,1 0,2c0,0 0,0 0,0c-1,1 -1,1 -1,1c0,1 0,1 0,1c0,0 0,0 0,1l1,0" id="svg_222" stroke-width="6" stroke="#845335" fill="none"/>
  <path d="m309.12378,32.10211c0,0 0,0 -1,0c0,0 0,0 0,0c0,1 0,1 0,2c0,0 0,0 0,1l0,0l0,0l0,0" id="svg_223" stroke-width="6" stroke="#845335" fill="none"/>
 </g>
</svg>