<svg width="107" height="266" xmlns="http://www.w3.org/2000/svg">

 <g>
  <title>Layer 1</title>
  <path d="m38,263c0,0 0,-1 0,-1c1,-3 2,-7 2,-11c0,-3 1.98163,-8.71201 3,-14c0.18912,-0.98196 1.18323,-4.96683 2,-10c1.29144,-7.95816 2.22412,-17.96692 3,-24c1.40891,-10.95514 3.99594,-22.86484 5,-34c0.35922,-3.98383 0,-13 0,-22c0,-6 0,-17 0,-27c0,-6 0,-17 0,-25c0,-4 -0.49756,-9.9258 -1,-15c-0.29562,-2.9854 0,-3 0,-4l0,0l0,-1" id="svg_138" stroke-width="6" stroke="#729C62" fill="none"/>
  <path d="m53,78c0,0 1,1 1,1c1,2 3.34619,4.70546 5,7c1.30746,1.814 1.29291,3.29289 2,4c0.70709,0.70711 1.8244,0.09789 3,2c0.52576,0.85065 2.85272,2.1731 4,3c1.81396,1.30745 4,1 6,1c4,0 8,0 10,0c5,0 8,0 9,0c3,0 4,0 4,0c1,-2 1.31073,-3.08025 2,-6c0.51373,-2.17625 2,-3 2,-5c0,-1 0.22974,-4.02675 0,-5c-0.51373,-2.17625 -2,-4 -3,-5c-1,-1 -3,-3 -3,-3c-2,-1 -4,-3 -6,-4c-2,-1 -2.69342,-1.4588 -4,-2c-0.92389,-0.38269 -2,-1 -2,-1c-1,-1 -5,-2 -5,-2c-2,0 -2,-1 -3,-1c0,0 -1.15222,0.76537 -3,0c-1.30658,-0.5412 -2,-1 -2,-1c0,0 1.15222,0.76537 3,0c1.30658,-0.5412 4,-1 6,-2c2,-1 4.50427,-0.03552 9,-3c1.18066,-0.77852 4.88153,-3.19028 8,-5c1.93402,-1.12234 3,-2 5,-4c2,-2 3,-3 3,-3c0,-1 0,-3 0,-7c0,-3 0,-4 0,-5c0,-1 0,-1 0,-2c0,0 -1,-1 -2,-2c-1,-1 -0.69342,-1.4588 -2,-2c-0.92389,-0.38269 -3.29291,-0.29289 -4,-1c-1.41418,-1.41422 -2,0 -3,0c0,0 -1,0 -2,0c-2,0 -2,0 -4,0c-1,0 -2.07611,0.61731 -3,1c-1.30658,0.5412 -1.82373,2.48625 -4,3c-1.94647,0.4595 -3,2 -4,2c-1,0 -1,1 -2,2c0,0 -1.29291,0.29289 -2,1c-0.70709,0.70711 -1,2 -1,2c0,0 -0.29291,0.29289 -1,1c-0.70709,0.70711 0,1 -1,2c0,0 0,0 -1,1c0,0 0,0 0,1c0,0 -1,0 -1,0c0,0 0,1 -1,1c0,0 -0.29291,0.29289 -1,1c-0.70709,0.70711 0,1 0,1c-1,0 -1,0 -1,0c0,0 0,-1 0,-2c0,0 0,-1 0,-1c0,-1 1.48627,-1.82375 2,-4c0.45953,-1.9465 1,-6 1,-8c0,-2 1,-5 1,-5c0,0 0,-1 0,-2c0,-1 0,-3 0,-6c0,-2 0,-5 0,-6c0,-1 0,-2 0,-2c-1,-1 -2,-2 -2,-2c-2,-1 -3.01294,-1.83981 -4,-2c-3.12143,-0.50655 -4,-1 -4,-1c0,0 -1,0 -2,0c0,0 -1,0 -3,0c0,0 -1.186,0.69255 -3,2c-1.14728,0.8269 -1.1731,1.85274 -2,3c-1.30746,1.814 -1.33749,3.31001 -3,6c-0.7435,1.203 -1,2 -1,4c0,2 0,4 0,6c0,1 0,2 0,3c0,0 0,1 0,1c0,1 0,1 0,1c0,1 0,1 0,2c0,1 0.48627,0.82375 1,3c0.22977,0.97325 1,2 1,3c0,1 -0.38269,2.07613 0,3c0.5412,1.30656 0.5412,1.30656 0,0c-0.38269,-0.92387 -1.44351,-2.38063 -3,-8c-0.26694,-0.96371 -1.29291,-4.29289 -2,-5c-0.70709,-0.70711 0,-2 -1,-3c0,0 -1.23462,-2.15224 -2,-4c-0.5412,-1.30656 -2,-2 -2,-2c0,0 -1,-1 -1,-1c0,0 -1,0 -2,0c-1,0 -5,0 -7,0c-2,0 -5,0 -8,0c-1,0 -4,1 -6,2c0,0 -0.85272,1.1731 -2,2c-1.814,1.30745 -2,2 -2,3c0,1 0,2 0,5c0,1 0,2 0,3c0,1 -0.30655,1.4588 1,2c0.92389,0.38269 2.82443,1.09789 4,3c0.52573,0.85065 1,1 2,2c0,0 2,2 3,2c0,0 1.69345,2.4588 3,3c0.92389,0.38269 2,0 3,1c0,0 1,0 1,0c0,1 1,1 1,1c0,0 1.07611,0.61731 2,1c1.30655,0.5412 1,1 2,1c0,0 1,0 1,0c0,1 -0.07611,0.61731 -1,1c-1.30655,0.5412 -4,1 -6,1c-3,0 -7,0 -7,0c-1,0 -3,0 -4,0c-1,0 -2,1 -2,1c0,0 -2,0 -2,0c0,0 -1,0 -1,0c-1,1 -1,1 -2,2c0,0 0.38269,1.07613 0,2c-0.5412,1.30656 -2,3 -2,4c0,0 0,2 0,2c-1,3 -1,4 -1,5c0,2 0,5 0,5c0,0 0,0 0,1c0,0 0.69345,1.4588 2,2c1.84775,0.76537 4,1 6,1c1,0 3,0 4,0c2,0 2,0 2,0c1,0 1.82376,-0.48625 4,-1c0.97324,-0.22975 2,0 3,-1c0,0 1,-1 1,-1c1,-1 1.29291,-0.29289 2,-1c0.70709,-0.70711 1,-1 1,-2c0,0 1,0 1,0c0,-1 0,-2 0,-1c0,0 0,1 0,1c-1,2 -4.186,3.69255 -6,5c-1.14728,0.8269 -1.61731,1.07613 -2,2c-1.0824,2.61313 -3,3 -4,4c-1,1 -2,3 -2,3c0,1 -1,2 -1,2c0,1 0,5 0,7c0,1 0,3 0,3c0,1 0,2 0,2c1,1 1.29291,2.29289 2,3c0.70709,0.70711 4.90283,1.2242 7,2c3.867,1.4305 5,1 6,1c2,0 4.52814,-0.11833 5,-1c1.70129,-3.17892 6,-4 6,-4c3,-3 3.34619,-3.70546 5,-6c1.30746,-1.814 1,-3 1,-3c0,-1 0.4588,-1.69344 1,-3c0.76538,-1.84776 1,-2 1,-3c0,0 0,-1 0,-1c0,-1 0,-2 0,-2c0,-1 0,-1 0,-1c1,-2 2,-3 1,-3c-1,0 0,1 0,2l0,0l0,1" id="svg_148" stroke-width="6" stroke="#FABA6F" fill="none"/>
  <path d="m52,78c-1,-1 0.82376,-1.48625 3,-2c0.97324,-0.22975 3,-1 4,-1c0,0 1.07611,-0.61731 2,-1c1.30658,-0.5412 1.07611,-1.61731 2,-2c1.30658,-0.5412 0.29291,-1.29289 1,-2c0.70709,-0.70711 1,-2 1,-3c0,0 1,-1 1,-2c0,0 0,-1 0,-1c0,-1 0,-2 0,-2c0,-1 0,-2 0,-2c0,-1 0,-2 0,-3c0,0 0,-1 0,-1c-1,-1 -1,-2 -1,-2c-1,-1 -1,-2 -1,-2c-1,-2 -2,-2 -2,-3c0,0 -1,-2 -1,-2c-1,-1 -3,-2 -3,-2c-1,-1 -1.4588,-0.69344 -2,-2c-0.38269,-0.92387 -1,-1 -1,-1c-1,0 -2,0 -2,0c-1,0 -2,0 -3,0c-2,0 -3,0 -4,0c0,0 -2.0979,0.82443 -4,2c-1.70129,1.05147 -4.29291,0.29289 -5,1c-0.70709,0.70711 -1,2 -2,2c-1,0 -2,2 -2,2c-1,0 -1,1 -1,2c0,1 -1,3 -1,5c0,0 0,1 0,3c0,0 0.29291,2.29289 1,3c0.70709,0.70711 2.18875,2.41528 3,3c2.56537,1.84901 1.61731,4.07613 2,5c0.5412,1.30656 0.69345,2.4588 2,3c0.92389,0.38269 1,0 2,1c0,0 1,1 1,1c1,0 2,0 2,0c1,0 2,0 3,0c1,0 2,0 2,0l0,0l0,0l1,0" id="svg_139" stroke-width="6" stroke="#C48157" fill="none"/>
 </g>
</svg>