<svg width="698" height="1070" xmlns="http://www.w3.org/2000/svg">

 <g>
  <title>Layer 1</title>
  <path stroke="#845335" d="m286.46342,1061.07881c0,-0.89068 0,-4.45338 0,-9.79743c0,-6.23473 0.57477,-25.85317 -1,-50.76849c-0.73285,-11.59465 -2,-33.84566 -2,-54.33119c0,-9.79743 -0.99921,-28.44828 -2,-50.76849c-0.55865,-12.4595 -1.50226,-36.54079 -3,-57.89389c-0.75082,-10.7043 -3.53622,-31.11699 -6,-51.65916c-1.27908,-10.66445 -3.49982,-29.37472 -4,-46.31511c-0.2103,-7.12296 0,-20.48553 0,-31.17363c0,-5.34405 0,-16.92283 0,-30.28296c0,-7.1254 0,-19.59485 0,-32.06431c0,-6.23473 -1,-17.8135 -1,-30.28296c0,-5.34405 0,-15.14148 0,-23.15755c0,-4.45338 -2,-12.46945 -2,-16.92283c0,-8.01608 -1.49924,-15.99519 -2,-24.04823c-0.27649,-4.44658 0.96109,-11.64776 0,-16.92283c-0.50653,-2.78021 -1,-6.23473 -1,-8.90675c0,-1.78135 0,-3.5627 0,-7.1254c0,-1.78135 0,-3.5627 0,-6.23473c0,-2.67203 0,-3.5627 0,-4.45338l0,-0.89068l0,0" id="svg_190" stroke-width="6" fill="none"/>
  <path stroke="#845335" d="m419.46342,1067.07883c0,-0.9538 0,-1.90759 0,-5.72277c0,-3.81518 0.49969,-8.56029 1,-22.89109c0.66559,-19.06531 -0.9978,-29.58593 0,-54.36633c1.00073,-24.85363 2,-35.29043 2,-58.18152c0,-23.84488 0,-34.33663 0,-57.22772c0,-20.9835 0,-30.52145 0,-48.64356c0,-16.21452 0,-25.75247 0,-43.87459c0,-18.12211 0,-26.70627 0,-45.78218c0,-17.16832 -0.03131,-25.88049 -3,-42.92079c-3.02252,-17.34925 -5.91669,-24.66042 -8,-40.0594c-1.7962,-13.27711 -2,-20.0297 -2,-32.42904c0,-11.44554 -0.49963,-17.14084 -1,-29.56766c-0.38379,-9.53091 0,-13.35313 0,-22.89109c0,-7.63036 0,-11.44554 0,-20.0297c0,-6.67657 -0.49756,-8.51337 -1,-13.35313c-0.39417,-3.79661 -0.49622,-4.68101 -1,-8.58416c-0.36658,-2.83996 0,-2.86139 0,-4.76898c0,-0.9538 0,-1.90759 0,-2.86139c0,-0.9538 0,-0.9538 0,-1.90759c0,-1.90759 0,-2.86139 0,-3.81518c0,-1.90759 0,-1.90759 0,-2.86139c0,-0.9538 0,-0.9538 0,-1.90759c0,-0.9538 0,-0.9538 0,-2.86139c0,-2.86139 0,-2.86139 0,-3.81518c0,-0.9538 0,-1.90759 0,-1.90759c0,-0.9538 0,-0.9538 0,-1.90759c0,0 0,0 0,-0.9538c0,0 0,0 0,0l0,-0.9538l0,0l0,-0.9538" id="svg_192" stroke-width="6" fill="none"/>
  <path d="m258.46342,545.07884c0,0 -2.02582,0.32037 -4,0c-3.12143,-0.50653 -7.96384,-2.11584 -11,-3c-11.87604,-3.45831 -27.01132,-7.97369 -34,-11c-16.02621,-6.93982 -30.11954,-14.77197 -36,-18c-5.11145,-2.80591 -5.4588,-3.69342 -6,-5c-0.38269,-0.92389 -5.797,-5.25653 -7,-6c-5.37997,-3.32501 -18.95819,-6.19843 -28,-8c-16.9299,-3.37323 -33.88731,-5.37671 -40,-7c-4.92821,-1.30878 -5.5695,-5.133 -7,-9c-1.55159,-4.19434 -6.50314,-19.2193 -12,-31c-12.86003,-27.56122 -30.77852,-57.11243 -40,-75c-16.60373,-32.2074 -28.48038,-55.63568 -30,-65c-2.56291,-15.7934 6.11807,-26.90353 11,-33c10.25186,-12.80231 20.56287,-24.63034 25,-32c6.92027,-11.4939 10.72064,-26.85364 12,-35c2.33232,-14.85126 1.45412,-30.11694 3,-36c2.97466,-11.3204 8.72398,-20.22272 12,-24c5.55957,-6.41025 12,-9 14,-10c2,-1 5.1731,-3.85272 6,-5c2.6149,-3.62799 2.73145,-8.0769 4,-12c3.31371,-10.24789 7.79393,-22.08743 10,-27c1.83203,-4.07967 2.01291,-4.16019 3,-4c6.24289,1.01308 11,2 12,2c4,0 8.84282,-3.11096 11,-6c4.67282,-6.25816 8.29584,-9.79434 11,-14c6.77658,-10.53935 13.41156,-22.40401 17,-27c8.70325,-11.14691 23.76605,-17.61887 31,-20c16.58868,-5.46036 34.97446,-6.23154 43,-7c14.96484,-1.43292 25,-2 25,-2c0,0 0.01291,-0.16019 1,0c3.12143,0.50655 5.76108,3.41589 9,5c2.84073,1.38936 4,1 4,1c0,0 1.4505,-0.45049 4,-3c2.5495,-2.54951 8.66891,-8.62021 12,-10c4.71088,-1.95131 12,-2 16,-2c8,0 16.22937,0.33199 20,2c6.59467,2.91728 7,5 7,5c1,0 2,0 2,0c3,0 7.02655,-1.60181 10,-2c11.30087,-1.5134 25.97586,-6.24857 35,-7c17.96558,-1.49599 37,-1 46,-1c16,0 29.0116,1.62718 35,2c8.04669,0.50096 9,1 9,1c2,1 9,3 9,3c4,0 11,1 11,2c0,1 0,5 0,5c-3,8 -9,18 -12,22c0,0 0,1 0,4c0,2 2,8 2,12c0,3 -1.49829,5.93796 -2,12c-0.3299,3.98637 -1.38269,5.07613 -1,6c1.0824,2.61313 6.133,4.5695 10,6c4.19434,1.55159 14,5 23,9c0,0 0,4 0,10c0,1 -1.28143,6.1033 0,14c0.50653,3.12143 6.42377,10.21906 16,14c3.83502,1.51416 16.61121,6.26324 31,10c5.88745,1.52896 17.37158,5.25131 26,10c3.15875,1.73843 7.73657,6.57718 16,10c5.84314,2.42029 19.91595,4.48926 36,7c7.96576,1.24347 24.30402,2.82629 38,7c5.15131,1.56979 13.41364,4.62531 17,9c2.28589,2.78833 6.56866,7.78275 9,15c1.31628,3.90735 2.65985,11.02725 2,19c-0.50171,6.06204 -7.33643,17.75491 -16,30c-4.16492,5.88672 -9.7251,9.46356 -14,16c-3.67175,5.61414 -4.64636,8.03714 -1,12c1.51404,1.64548 8.15814,5.26205 11,11c1.82996,3.69476 2.86151,14.57559 -2,27c-2.93774,7.50797 -14.74023,20.24005 -24,30c-3.89349,4.10376 -8.80383,10.75613 -9,19c-0.12128,5.0976 3.49963,14.97119 4,28c0.26862,6.99487 0.38898,22.90369 -12,36c-6.87213,7.26453 -24.28369,16.52283 -38,25c-6.13416,3.79108 -12.37134,8.74677 -15,13c-1.1756,1.9021 -1.19409,5.88855 -4,11c-2.15204,3.92029 -6.448,12.44543 -13,20c-3.70636,4.2735 -11.49347,12.87854 -12,16c-0.16016,0.98706 0,3 4,7c2,2 6.15814,5.26208 9,11c1.82996,3.69476 3.44891,7.21454 2,12c-1.04486,3.45087 -6,8 -11,11c-5,3 -6.92578,4.49756 -12,5c-1.9903,0.19708 -8.94672,1.49872 -16,2c-3.98993,0.28357 -13,0 -23,0c-6,0 -19,0 -30,0c-6,0 -15.97925,-1.09583 -25,-3c-4.98907,-1.0531 -11.94672,-2.49872 -19,-3c-1.995,-0.14178 -3,-1 -3,-1c-1,-1 -2.85272,-1.1731 -4,-2c-1.81396,-1.30743 -2,-1 -3,-1c0,0 0,-1 -1,-1c0,0 0,0 0,-1c0,0 -0.61731,-1.07611 -1,-2c-0.5412,-1.30658 -2,-2 -3,-2l0,0l0,0l-1,-1" id="svg_196" stroke-width="6" stroke="#729C62" fill="none"/>
 </g>
</svg>