<svg width="89" height="78" xmlns="http://www.w3.org/2000/svg">

 <g>
  <title>Layer 1</title>
  <path d="m25.10211,45c0,0 0,1 0,1c-1,0 -1,1 -1,1c-1,1 -1,1 -1,1c0,1 0.70709,1.29289 0,2c-0.70709,0.70711 -1,2 -1,2c0,1 -1,2 -1,3c0,1 0,1 0,2c0,1 0,2 0,3c0,1 0,2 0,2c0,1 0,1 0,2c0,0 0,1 0,2c0,0 1,1 2,2c0,0 0,1 1,1c0,0 0,1 0,1c1,0 1,0 1,0c0,0 1,0 1,0c0,0 0,0 0,-1l1,-1" id="svg_110" stroke-width="6" stroke="#E6C36A" fill="none"/>
  <path d="m46.10211,47c0,0 -0.29291,-0.70711 -1,0c-0.70709,0.70711 -1,2 -1,2c-1,1 -1,1 -1,2c0,0 -1,1 -1,3c0,1 0,2 0,3c0,1 0,3 0,4c0,1 0,2 0,2c0,1 0,1 1,2c0,0 0,1 1,1c0,0 0,1 0,1c0,0 1,1 1,1c0,0 1,1 1,1c0,1 1,1 1,1c0,0 1,1 1,1c1,0 1,1 2,1c0,0 1,0 1,0l1,0l0,-1" id="svg_111" stroke-width="6" stroke="#E6C36A" fill="none"/>
  <path d="m69.10211,48c0,0 -1,0 -1,0c0,0 -1,0 -1,0c-1,1 -1.29291,1.29289 -2,2c-0.70709,0.70711 0.38269,1.07613 0,2c-0.5412,1.30656 -1,2 -1,2c0,1 0,2 0,3c0,1 0,2 0,2c0,1 0,1 0,2c0,0 0.48627,-0.17625 1,2c0.22977,0.97324 0,1 0,1c0,1 -0.70709,1.29291 0,2c0.70709,0.70709 0.29291,0.29291 1,1c0.70709,0.70709 1,1 1,1c0,0 1,1 1,1c0,0 0.29291,-0.70709 1,0c0.70709,0.70709 0,1 0,1c0,0 1,0 1,0l-1,0" id="svg_112" stroke-width="6" stroke="#E6C36A" fill="none"/>
  <polyline stroke-linecap="round" id="svg_113" points="74.10211181640625,55 74.10211181640625,56 " stroke-width="6" stroke="#4C261D" fill="none"/>
  <path d="m47.10211,41c0,0 -0.4588,-0.69344 -1,-2c-0.76538,-1.84776 -1.48627,-3.82375 -2,-6c-0.4595,-1.9465 -1.51944,-5.03874 -2,-8c-0.50653,-3.12144 -1.83981,-5.01291 -2,-6c-0.50653,-3.12144 -0.77023,-3.02675 -1,-4c-0.51373,-2.17625 -0.87766,-2.06601 -2,-4c-1.80972,-3.11848 -1.61731,-3.07613 -2,-4c-0.5412,-1.30656 -0.29291,-1.29289 -1,-2c-0.70709,-0.70711 -1.29291,0.70711 -2,0c-0.70709,-0.70711 -1,-1 -1,-1c-2,0 -3,0 -6,0c-1,0 -1,-1 -2,-1c0,0 -1,0 -1,0c-1,0 -1.07611,0.61731 -2,1c-1.30655,0.5412 -2,1 -2,1c0,1 0,2 0,3c0,1 0,2 0,3c0,0 0,1 0,1c0,1 0,1 0,2c0,0 0,1 0,1c0,2 1,3 1,3c0,1 0.29291,3.29289 1,4c0.70709,0.70711 1.4588,0.69344 2,2c0.38269,0.92387 2,2 2,3c0,0 0.61731,0.07613 1,1c0.5412,1.30656 3.54916,3.95517 7,5c0.95709,0.28978 4,1 4,1c1,1 2,2 2,2c1,0 1.07611,0.61731 2,1c1.30655,0.5412 2,1 2,1c1,1 1,1 1,1c1,0 1,0 1,0c1,1 1,1 2,1c0,0 0,0 0,0c1,0 1,0 2,0c3,0 5.0535,-0.5405 7,-1c2.17624,-0.51375 2.0979,-1.82443 4,-3c0.85065,-0.52573 1.29291,-0.29289 2,-1c0.70709,-0.70711 1.61731,-1.07613 2,-2c0.5412,-1.30656 2,-3 2,-3c0,-1 0.29291,-1.29289 1,-2c0.70709,-0.70711 0,-2 0,-2c0,-3 0,-5 0,-6c0,-1 0,-2 0,-2c0,-1 0,-2 0,-2c0,-1 0,-2 0,-2c0,-1 -1,-1 -1,-3c0,0 0.70709,-0.29289 0,-1c-0.70709,-0.70711 -1,-1 -1,-1c-1,0 -2,-1 -2,-1c0,0 -1,0 -1,0c-1,0 -1,0 -2,0c0,0 -0.29291,-0.70711 -1,0c-0.70709,0.70711 -0.69254,1.186 -2,3c-0.8269,1.14726 -1,2 -2,3c-1,1 -1.29291,1.29289 -2,2c-0.70709,0.70711 -0.9176,1.38687 -2,4c-0.38269,0.92387 0,2 -1,4c0,0 -0.29291,0.29289 -1,1c-0.70709,0.70711 0,1 0,2c0,1 -1,2 -1,3c0,0 0,1 0,2c0,0 0,0 0,1c0,0 0,1 0,2l0,-1l0,-2" id="svg_114" stroke-width="6" stroke="#999999" fill="none"/>
  <path d="m53.10211,46c0,0 -1,0 -1,0c-3,0 -7,0 -10,0c-3,0 -9,0 -11,0c-5,0 -7,0 -7,0c-1,0 -2.01291,-0.16019 -3,0c-3.12143,0.50655 -6.04291,1.71022 -7,2c-3.45084,1.04483 -6,3 -6,3c0,1 -0.61731,1.07613 -1,2c-0.5412,1.30656 -3.48627,3.82375 -4,6c-0.22977,0.97325 0,2 0,2c0,1 -0.22977,2.02676 0,3c0.51373,2.17624 2,3 2,3c1,2 2,3 2,3c1,1 1.82376,1.48627 4,2c1.9465,0.4595 5,1 6,1c1,0 4,1 7,1c2,0 6.02582,-0.32037 8,0c3.12143,0.50653 7,1 9,1c1,0 4,0 5,0c4,0 8,0 10,0c5,0 8,0 10,0c4,0 6.85272,-0.1731 8,-1c1.814,-1.30746 4.29291,-1.29291 5,-2c0.70709,-0.70709 2.14935,-1.47427 3,-2c1.9021,-1.17557 2.61731,-3.07611 3,-4c0.5412,-1.30655 1,-1 1,-2c0,-1 0,-3 0,-3c0,-1 0,-3 0,-3c0,-1 -1,-2 -1,-2c-1,-1 -2.14935,-2.47427 -3,-3c-1.9021,-1.17557 -1,-3 -2,-3c0,0 -0.69345,-0.4588 -2,-1c-0.92389,-0.38269 -2,-1 -3,-1c-2,0 -2,0 -3,-1c0,0 -1,0 -1,0c-1,0 -3.07611,0.38269 -4,0c-1.30655,-0.5412 -2,-1 -2,-1c-1,0 -1.29291,0.70711 -2,0c-0.70709,-0.70711 0,-1 0,-1c-1,0 -3,0 -3,0c-1,0 -1,0 -2,0c0,0 -1,0 -1,0c-1,0 -2,-1 -2,-1c-1,0 -1,0 -2,0c0,0 0,0 0,0l-1,0l0,0l0,0" id="svg_109" stroke-width="6" stroke="#894F3F" fill="none"/>
 </g>
</svg>