<svg width="497" height="835" xmlns="http://www.w3.org/2000/svg">

 <g>
  <title>Layer 1</title>
  <path d="m353,831.19746c0,0 0,-1 0,-2c0,-4 0.48871,-8.02997 0,-12c-0.50378,-4.09222 -4.38043,-13.90326 -7,-25c-1.17151,-4.96259 -5.75848,-22.03876 -7,-29c-2.51392,-14.0954 -5,-26 -6,-32c-1,-6 -3.57727,-17.03943 -5,-30c-0.77155,-7.02887 -3.48779,-20.91064 -6,-36c-2.48517,-14.92731 -5.02899,-30.9964 -6,-39c-2.06158,-16.99261 -3.66467,-32.04364 -5,-41c-2.40051,-16.10083 -5.99243,-32.81555 -7,-41c-1.71057,-13.89508 0,-26 0,-31c0,-11 0,-21 0,-26c0,-8 0,-17 0,-21c0,-10 0.30048,-17.91608 1,-21c1.78345,-7.86255 1.71643,-15.01007 2,-19c0.50128,-7.05328 1.75146,-14.00775 2,-18c0.50098,-8.04669 1.75146,-16.00775 2,-20c0.50098,-8.04669 2.29303,-10.93796 3,-15c1.72327,-9.90103 1.92987,-13.00906 3,-21c0.93854,-7.00851 2.18835,-12.94366 3,-16c1.30878,-4.92819 2.48627,-7.82376 3,-10c0.68927,-2.91974 1.22418,-4.90283 2,-7c1.43048,-3.867 3,-8 4,-10c1,-2 2,-4 3,-5c0,0 0,0 0,0l0,-1l0,0" id="svg_163" stroke-width="6" stroke="#845335" fill="none"/>
  <path d="m322,351.19746c1,1 3.10266,2.36755 5,3c4.74341,1.58115 8.94366,4.18835 12,5c9.85638,2.61752 24,2 31,2c13,0 19,-1 27,-3c0,0 -0.17627,-1.48627 2,-2c0.97327,-0.22977 5.0639,-3.64828 6,-4c9.95093,-3.73889 20.35968,-17.59753 26,-23c10.73584,-10.28308 18,-17 19,-17c0,0 0.90778,0.49622 5,1c3.97003,0.48874 6.31549,0.57697 14,-4c10.4873,-6.24634 20.78491,-19.71347 23,-27c4.73474,-15.57504 -1.7702,-34.74402 -7,-42c-8.26904,-11.47269 -15,-13 -15,-16c0,-1 2,-3 2,-5c0,-3 0,-12 0,-13c0,0 -4,1 -3,1c1,0 2.16797,-3.92035 4,-8c4.41211,-9.82513 6.9975,-16.89343 8,-31c0.92157,-12.96729 -0.47577,-20.22916 -8,-28c-5.98389,-6.18005 -6.87781,-5.00751 -7,-6c-0.50378,-4.09222 -0.1922,-8.02512 -1,-21c-0.50098,-8.04668 -8.10626,-33.59286 -13,-40c-7.72577,-10.11496 -15.96497,-12.1358 -30,-12c-11.04486,0.10687 -11.25653,1.203 -12,0c-1.66254,-2.68999 -3.69238,-5.41092 -7,-10c-1.30743,-1.814 -8.27649,-10.13464 -25,-20c-9.62964,-5.68063 -30,-13 -47,-17c0,0 0,-1 0,-1c0,0 -2,-2 -6,-6c-1,-1 -10.01013,-5.14218 -25,-4c-9.19287,0.70047 -25,6 -31,9c0,0 0,0 -1,0c-1,0 -2.00494,-0.19925 -6,0c-10.03738,0.50063 -19.33173,1.15813 -38,9c-19.38312,8.14215 -26,15 -31,18c0,0 -0.96384,-0.11586 -4,-1c-3.95868,-1.15277 -9.00253,-2.14258 -13,-2c-14.02676,0.50032 -29,7 -34,12c-5,5 -11,16.58578 -11,18c0,1.41422 -2,5 -2,8c0,6 0.29291,15.29289 1,16c0.70709,0.70711 -0.297,0.38617 -3,-2c-1.67633,-1.47984 -6.23148,-5.66824 -20,-11c-7.68979,-2.9778 -23.21957,-4.58089 -36,-2c-6.1994,1.25192 -13.48627,7.82375 -14,10c-0.22977,0.97325 -4.22937,1.33199 -8,3c-3.29733,1.45863 -7.55344,3.02328 -14,15c-4.04953,7.52339 -9.11334,25.44778 -5,43c1.73767,7.41489 16.58115,15.25659 15,20c-0.63245,1.89737 -3.40607,-0.80872 -6,1c-5.25232,3.66238 -8.84845,11.48608 -13,30c-5.50937,24.56921 -7.73291,38.76926 -1,62c5.23013,18.04565 13,23 12,23c-3,0 -11.33179,2.61734 -16,7c-10.83813,10.1752 -18,26.94461 -18,36c0,18.11078 10.50317,33.78125 18,38c13.27408,7.46985 23,8 23,8c0,3 0.14774,3.94342 2,9c1.08768,2.96936 14.82529,15.76575 22,17c15.79916,2.7179 30.23297,-3.58972 34,-6c5.39359,-3.45099 6.4588,-4.30658 7,-3c0.76538,1.84778 1.46008,10.41168 8,16c3.39993,2.90521 7.97046,4.76526 15,4c8.49384,-0.92468 10.05682,-4.05377 11,-3c4.27039,4.77112 5.62531,7.41364 10,11c8.36496,6.85767 14.97891,9.67169 28,9c11.1655,-0.57599 15,-4 17,-7l0,0l0,0l0,0" id="svg_164" stroke-width="6" stroke="#729C62" fill="none"/>
  <path d="m194,355.19746c0,0 -1.49347,-2.87857 -2,-6c-0.32037,-1.97418 1.03146,-3.41208 -1,-7c-0.69678,-1.23065 -0.84085,-5.17163 -2,-9c-1.04483,-3.45084 -3,-9 -4,-11c-1,-2 -1,-2 -1,-3c0,0 0.14728,-1.1731 -1,-2c-1.814,-1.30746 -2,-1 -3,-1c0,0 -3,-1 -8,-1c-3,0 -5,0 -9,0c-2,0 -6.01498,0.24435 -8,0c-4.09222,-0.50378 -8,-1 -13,-1c-3,0 -7,0 -11,0c-2,0 -4,0 -8,0c-1,0 -5,0 -7,0c-2,0 -6,0 -9,1c-3,1 -6,1 -8,1c-2,0 -5,0 -6,0c0,0 -2,0 -2,0c-1,0 -1.9183,-1.11215 -6,-4c-2.94336,-2.08246 -7.58578,-3.58578 -9,-5c-0.70709,-0.70709 0,-1 -1,-1c0,0 0,0 -2,-1c0,0 -5.22937,-0.33197 -9,-2c-3.29733,-1.45865 -5,-3 -6,-3c-1,0 -1,0 0,1c0,0 1.28326,0.43277 3,-1c3.83875,-3.20374 5.297,-5.61383 8,-8c1.67633,-1.47983 2.82376,-2.48627 5,-3c2.91974,-0.68927 6,0 12,0c5,0 6,0 11,0c2,0 3,0 3,0c1,0 5.02582,-0.32037 7,0c3.12143,0.50653 5,1 6,1c3,0 4,0 4,0c3,-1 7,-3 9,-3c3,0 7,0 9,0c1,0 2.07611,-0.61731 3,-1c3.91968,-1.6236 5.186,-4.69254 7,-6c4.58908,-3.30762 7.4588,-6.69345 8,-8c1.14804,-2.77164 0.4595,-8.0535 0,-10c-0.51373,-2.17624 -2.88153,-3.19028 -6,-5c-3.86798,-2.24469 -10.07843,-4.78986 -13,-6c-4.13171,-1.71143 -7.82376,-4.48627 -10,-5c-0.97324,-0.22977 -2.02676,0.22977 -3,0c-4.35251,-1.0275 -7.07611,-2.61731 -8,-3c-1.30655,-0.5412 -5.88153,-4.19028 -9,-6c-3.86798,-2.24469 -10.21167,-5.71411 -13,-8c-4.37469,-3.5864 -5,-5 -5,-5c0,0 -1,-1 -1,-1c-2,-3 -2.75531,-5.13202 -5,-9c-1.80972,-3.11847 -5.1731,-6.85272 -6,-8c-1.30746,-1.814 -3.71021,-5.04291 -4,-6c-1.04483,-3.45084 -6.47427,-7.14935 -7,-8c-1.17557,-1.9021 -2,-2 -2,-2c0,-1 2,-1 5,-1c4,0 10,0 12,0c5,0 5,0 5,0c1,0 2.22272,-0.276 6,3c2.13675,1.85318 5,4 6,5c1,1 2.29291,0.29291 3,1c0.70709,0.70709 0,1 2,2c0,0 3,2 4,2c0,0 -0.17624,1.48627 2,2c1.9465,0.4595 4,0 6,1c0,0 0,0 1,0c0,0 0,-1 0,-4c0,-5 -0.49622,-6.90778 -1,-11c-0.48874,-3.97003 -0.53375,-8.09662 -2,-14c-1.52454,-6.13806 -3,-9 -3,-12c0,-1 -1.48627,-1.82376 -2,-4c-0.22977,-0.97324 0.14877,-3.13376 -1,-8c-0.51373,-2.17624 -1.23773,-3.93097 -2,-7c-1.46625,-5.90338 -1,-8 -1,-11c0,-1 0,-2 0,-3c0,0 0,-1 0,-2c0,-1 0,-2 1,-2c0,0 1.19891,-0.46762 4,1c4.42889,2.32053 6.23273,4.73325 12,10c3.13287,2.86096 3.23462,6.15225 4,8c0.5412,1.30655 1,2 1,2c1,2 1.3085,4.87354 2,7c1.88107,5.78461 1.09543,6.97736 2,11c1.11865,4.97479 1.35928,7.05164 2,11c0.50653,3.12143 0.76138,5.04468 2,11c0.8396,4.03671 1,6 2,10c1,4 1.33749,6.31 3,9c0.7435,1.203 1.82443,2.0979 3,4c1.05145,1.70129 -0.12234,2.06601 1,4c1.80972,3.11847 4,6 8,10c3,3 3.37201,3.3851 7,6c3.4418,2.48071 5.88153,4.19028 9,6c3.86798,2.24469 6,4 7,5c1,1 3.21167,2.71411 6,5c1.09366,0.89661 2.21167,1.71411 5,4c2.18735,1.79318 3.70547,4.34619 6,6c1.814,1.30746 1.69345,1.4588 3,2c0.92389,0.38269 1.4588,-0.30655 2,1c0.38269,0.92389 2.54901,2.60641 6,8c1.20514,1.88351 1,3 1,3c0,0 0.69254,1.186 2,3c2.48071,3.4418 4,4 6,7c0,0 0.07611,0.61731 1,1c1.30655,0.5412 1.6218,-3.0361 2,-5c1.01837,-5.28799 3.87781,-9.00751 4,-10c0.50378,-4.09222 1,-6 1,-7c0,-3 0.36655,-7.02249 0,-10c-0.50378,-4.09222 -1,-5 -1,-5c0,-1 0,-1 0,-1c-1,-1 -1.30322,-1.76935 -2,-3c-2.03146,-3.58792 -1.49347,-4.87857 -2,-8c-0.48056,-2.96127 -1,-6 -1,-7c0,-1 0,-2 0,-4c0,-3 2.61731,-7.07611 3,-8c1.6236,-3.91968 4,-4 5,-5c1,-1 1.4588,-1.69345 2,-3c1.14804,-2.77164 0,-7 0,-9c0,-4 0,-9 0,-10c0,-7 -0.64557,-17.01257 -1,-22c-0.50125,-7.05328 -1,-12 -1,-13c0,-1 0,-2 0,-3c0,-2 0,-6 0,-9c0,-4 0,-9 0,-11c0,-5 0,-12 0,-13c0,-5 0.71643,-11.01006 1,-15c0.50125,-7.05328 2.30048,-13.91606 3,-17c1.78345,-7.86253 1.63345,-15.02248 2,-18c0.50378,-4.09221 2,-5 2,-5c1,0 2.50424,-0.96448 7,2c2.3613,1.55702 5.29291,3.29289 6,4c0.70709,0.70711 1,0 1,1c0,0 0,1 0,2c0,1 0,2 0,3c0,0 0,1 0,2c0,2 -2.4588,3.69344 -3,5c-0.38269,0.92387 -1,3 -3,6c0,0 0,2 0,3c0,2 0,4 0,8c0,4 0,8 0,12c0,2 -0.43048,7.133 1,11c0.77579,2.09717 3.49347,5.87857 4,9c0.32037,1.97418 1,6 1,9c0,5 0,8 0,10c0,4 0,8 0,14c0,3 0,9 0,12c0,0 -1,1 -1,2c0,0 0,4 0,8c0,2 0,7 0,11c0,1 0,2 0,3c0,0 0,2 0,7c0,1 0,4 0,7c0,0 -1,1 -1,2c0,1 0.38269,1.07611 0,2c-0.5412,1.30655 -1,3 -1,7c0,2 0,3 0,3c-1,1 -1,1 -1,1c0,0 -0.29291,0.29291 -1,1c-0.70709,0.70709 0,1 0,1c-1,1 -0.29291,1.29291 -1,2c-0.70709,0.70709 -1,0 -1,0c0,1 -1,1 -1,2c0,0 -0.4588,0.69345 -1,2c-0.38269,0.92389 0,3 0,5c0,5 -0.11865,6.02521 1,11c0.90457,4.02264 1,6 1,6c1,0 0.29291,1.29291 1,2c0.70709,0.70709 1,1 1,1c1,0 3,-1 3,-1c7,-3 11.186,-5.69254 13,-7c4.58908,-3.30762 5.27432,-7.88495 6,-10c1.65482,-4.82303 1.67963,-8.02582 2,-10c0.50653,-3.12143 1.22421,-4.90283 2,-7c1.43048,-3.867 1,-10 1,-10c0,-7 0,-14 0,-18c0,-7 0,-12 0,-15c0,-4 0,-8 0,-10c0,-7 0,-13 0,-16c0,-5 1,-8 1,-8c0,-1 0.1731,-2.85272 1,-4c1.30743,-1.814 1.4588,-4.69345 2,-6c0.38269,-0.92389 0,-1 0,-1c1,-1 0.87769,-2.06601 2,-4c1.80969,-3.11847 2,-4 2,-5c0,-2 0,-5 0,-5c0,-3 0,-4 0,-4c3,1 3,1 6,4c2,2 1.41888,2.41885 3,4c1.58112,1.58115 2.49347,1.87857 3,5c0.16016,0.98709 0,2 0,3c0,1 0.45953,2.0535 0,4c-0.51373,2.17624 -1.49622,3.90778 -2,8c-0.36658,2.97751 0,4 0,7c0,3 -1.14807,3.22836 0,6c0.5412,1.30655 1.4588,2.69345 2,4c0.76538,1.84775 0,2 0,2c1,2 1,2 1,2c1,1 1,2 2,2c0,0 0.41888,-0.41885 2,-2c1.58112,-1.58115 3,-3 5,-6c2,-3 1.75562,-4.01498 2,-6c0.50378,-4.09222 1.97253,-4.64749 3,-9c0.22974,-0.97324 0,-2 0,-2c0,-1 0,-1 0,-1c0,-1 1,-1 1,-1c1,0 2,1 3,1c1,0 2,0 3,0c0,0 1,-1 2,-2c1,-1 1.49756,-2.92578 2,-8c0.09851,-0.99515 0,-1 0,0c0,0 1.49756,2.92578 2,8c0.19708,1.99026 1,5 1,7c0,2 0,5 0,5c0,6 0,8 0,10c0,5 0,9 0,10c0,1 0,2 0,3c0,2 -1.724,6.22272 -5,10c-2.77979,3.20511 -7,8 -11,11c0,0 -1.29291,1.29291 -2,2c-0.70709,0.70709 0,2 -1,3c0,0 0,3 0,7c0,1 0,5 0,10c0,2 0,3 0,4c0,0 0,1 0,3c0,1 0,5 0,9c0,3 1.91339,7.38062 0,12c-0.5412,1.30655 -1,3 -1,6c0,1 -0.95514,3.54916 -2,7c-0.57959,1.91418 -1.34619,5.70547 -3,8c-1.30743,1.814 -4,4 -8,8c-2,2 -4.4588,3.69345 -5,5c-0.38269,0.92389 -0.70709,0.70709 0,0c1.41418,-1.41422 4.6579,-4.41431 7,-6c6.3064,-4.26962 11,-5 14,-7c6,-4 10.1731,-5.85272 11,-7c1.30743,-1.814 3.54138,-4.70267 5,-8c1.66803,-3.77063 2.81091,-7.01804 3,-8c1.01837,-5.28799 3,-8 3,-9c0,0 1.49829,-3.93796 2,-10c0.3299,-3.98636 2.08398,-9.96017 3,-12c2.20605,-4.91257 3.78986,-9.07843 5,-12c1.71143,-4.13171 5.37134,-9.74673 8,-14c4.70227,-7.60846 7.44299,-13.6387 9,-16c2.96448,-4.49576 4.1297,-9.88531 5,-11c3.58844,-4.59598 4.92401,-10.03986 6,-12c2.80591,-5.11145 5.14429,-9.93414 6,-12c1.21014,-2.92157 2.27344,-7.9223 3,-11c1.62457,-6.88191 2,-14 2,-18c0,0 1,0 2,0c0,0 1,0 3,-1c2,-1 3,-1 3,-1c1,-2 1,-2 1,-3c0,-1 1.97253,-4.64749 3,-9c0.22974,-0.97325 0,-1 0,-1c0,-1 1,0 1,0c2,3 3.20679,4.81265 5,7c2.28589,2.78833 3.41589,2.76108 5,6c1.38934,2.84073 0.91229,3.03067 2,6c1.85229,5.05659 2.49622,4.90779 3,9c0.85529,6.94754 0,9 0,13c0,3 0,4 0,7c0,4 0.91901,7.10699 0,11c-1.54126,6.52875 -4.46808,9.33206 -9,16c-3.5993,5.29575 -4.48627,4.82376 -5,7c-0.68927,2.91974 -1,5 -2,9c-1,4 -1.98694,6.75711 -3,13c-0.16016,0.98709 0,1 0,1c-1,2 -0.34515,3.17697 -2,8c-1.45135,4.23007 -1.71411,4.21167 -4,7c-1.79321,2.18735 -3.21167,3.71411 -6,6c-2.18732,1.79318 -3.41095,4.69238 -8,8c-1.81396,1.30746 -4.14935,2.47427 -5,3c-1.9021,1.17557 -1.48627,1.82376 -2,4c-0.68927,2.91974 -0.84723,6.04132 -2,10c-0.88416,3.03616 -2.61731,5.07611 -3,6c-0.5412,1.30655 -1,1 -2,3c0,0 -4,5 -6,9c-1,2 -2,3 -2,3c-1,1 -2,2 -2,2c-1,1 -1,1 -1,2c0,0 -0.30658,-0.4588 1,-1c0.92389,-0.38269 2.76111,-0.41589 6,-2c5.68146,-2.77872 9.07178,-2.69125 14,-4c3.05634,-0.81165 3.47424,-2.14935 4,-3c1.1756,-1.9021 2.55817,-2.51929 6,-5c3.62799,-2.6149 7.72821,-3.20016 10,-6c3.39307,-4.18176 5,-8 8,-11c1,-1 3,-4 5,-6c4,-4 5.54913,-6.95517 9,-8c0.95709,-0.28979 2.19891,-0.53238 5,-2c4.42889,-2.32053 5.07843,-3.78986 8,-5c4.13171,-1.71143 5.90778,-3.49622 10,-4c1.98499,-0.24435 3,-1 4,-1c1,0 3,0 4,-1c0,0 0.61731,0.07611 1,1c0.5412,1.30655 1.29291,0.29291 2,1c0.70709,0.70709 0,3 0,3c0,3 -2,7 -2,7c-2,3 -4,5 -6,7c-2,2 -3.90631,5.10339 -5,6c-2.78833,2.28589 -4,2 -4,3c0,0 -1.04291,0.71021 -2,1c-3.45087,1.04483 -5,4 -7,5c-2,1 -4,2 -4,2c-1,0 -3,2 -3,2c-2,1 -4.29291,2.29291 -5,3c-0.70709,0.70709 -1,1 -1,1c0,1 1,2 4,2c5,0 6,0 11,0c5,0 8,0 12,0c2,0 2,0 4,0c1,0 1.7027,-0.54135 5,-2c3.77063,-1.66803 6.133,-0.56952 10,-2c4.19434,-1.55161 7.18604,-2.69254 9,-4c1.14728,-0.8269 1.20679,-0.81265 3,-3c2.28589,-2.78833 3.41888,-5.41885 5,-7c1.58112,-1.58115 2,-1 3,-1c0,0 1.53076,1.30447 0,5c-0.5412,1.30655 -2,5 -2,11c0,4 -1.49622,5.90778 -2,10c-0.48871,3.97003 -0.78986,7.07843 -2,10c-0.85571,2.06586 -2.29291,2.29291 -3,3c-0.70709,0.70709 -1.06598,0.87766 -3,2c-6.23694,3.61945 -7.47125,6.45877 -14,8c-1.94647,0.4595 -2,0 -4,0c-2,0 -2.05164,0.64072 -6,0c-3.12146,-0.50653 -5,-2 -10,-2c-4,0 -7,0 -9,0c0,0 -0.82373,-0.48627 -3,-1c-0.97327,-0.22977 -4,0 -7,0c-4,0 -7,0 -9,1c0,0 -0.29291,0.29291 -1,1c-0.70709,0.70709 -0.07611,1.61731 -1,2c-1.30658,0.5412 -2,2 -3,3c0,0 -1,0 -1,0c0,0 -2,1 -2,1c-2,1 -3,1 -5,1c0,0 -3,0 -3,0c-4,0 -7,0 -8,0c-4,0 -5.05353,0.5405 -7,1c-2.17627,0.51373 -5.02673,1.77023 -6,2c-2.17627,0.51373 -3,1 -3,1c-1,0 -1,1 -1,1c0,0 -1,0 -1,1c0,0 0,1 0,2c0,0 -1.29291,1.29291 -2,2c-0.70709,0.70709 -1,2 -1,2c0,1 -1,1 -1,2l0,0l-1,0l0,0" id="svg_166" stroke-width="6" stroke="#845335" fill="none"/>
  <path d="m151,832.19746c0,-3 -0.3782,-6.03607 0,-8c1.01837,-5.28802 4.33487,-16.89856 6,-23c3.76962,-13.81268 6.60489,-29.05939 8,-37c3.90396,-22.2207 9.91718,-46.00616 11,-60c1.85797,-24.01141 3.22406,-34.98193 4,-46c1.40677,-19.97552 1.41479,-37.01715 2,-47c1.00171,-17.08789 2.9451,-37.00586 5,-56c1.94797,-18.00568 3.03113,-26.99799 4,-42c1.0332,-15.99786 2,-31 2,-38c0,-15 0,-27 0,-32c0,-9 0,-17 0,-21c0,-4 0,-13 0,-17c0,-8 0,-15 0,-21c0,-4 0,-4 0,-5c0,-1 0,-1 0,-1c0,-1 0,-2 0,-2c0,0 0,-1 0,-2c0,-1 0,-4 0,-6c0,-1 0.4595,-3.0535 0,-5c-0.51373,-2.17624 -1,-3 -1,-5c0,-1 -0.29291,-1.29291 -1,-2c-2.12131,-2.12131 0.38269,-4.07611 0,-5c-0.5412,-1.30655 -1,-2 -1,-3c0,0 0.12219,-2.00751 0,-3c-0.50378,-4.09222 -1.83981,-6.01291 -2,-7c-0.50653,-3.12143 -2,-7 -2,-7c-1,-4 -1.4588,-5.69345 -2,-7c-1.14804,-2.77164 0,-4 0,-4l0,-1" id="svg_161" stroke-width="6" stroke="#845335" fill="none"/>
 </g>
</svg>