<svg width="554" height="116" xmlns="http://www.w3.org/2000/svg">

 <g>
  <title>Layer 1</title>
  <path d="m3,27.62854c1,0 1.11586,-0.03616 2,3c1.15277,3.95868 1.91231,10.03067 3,13c1.85226,5.05659 2.91231,11.03067 4,14c1.85226,5.05658 2.78986,7.07843 4,10c0.85571,2.06586 2.513,3.59399 4,6c1.66251,2.69 3.11214,4.9183 6,9c2.08247,2.94336 4.132,5.75531 8,8c6.23695,3.61945 8.6129,6.76859 14,9c3.80925,1.57785 7.01691,1.90338 13,3c5.01547,0.91925 8,1 12,1c5,0 7.95331,0.49902 16,1c7.98453,0.4971 12,0 19,0c5,0 8.11237,0.45294 13,-1c5.16193,-1.53448 7.21167,-3.71411 10,-6c3.28101,-2.68979 6.22272,-4.724 10,-8c3.20511,-2.77979 5.22272,-3.724 9,-7c3.20511,-2.77979 5.14682,-3.86325 7,-6c3.276,-3.77728 4.37134,-4.74673 7,-9c1.17557,-1.9021 3,-3 6,-6c1,-1 3.20682,-2.81265 5,-5c2.28589,-2.78833 4,-4 6,-6c3,-3 4.21167,-3.71413 7,-6c2.18735,-1.7932 3.41528,-3.18875 4,-4c1.84903,-2.56537 4.08582,-1.42043 6,-2c3.45084,-1.04483 4.82376,-2.48625 7,-3c4.86624,-1.14876 7.00974,-0.19708 9,0c5.07422,0.50244 10.81937,3.22148 12,4c4.49576,2.96448 10.19891,4.53236 13,6c4.42889,2.32053 8.4136,5.62532 12,10c4.57175,5.57664 6.87766,8.06601 8,10c3.61945,6.23697 3.87766,7.06601 5,9c1.80972,3.11847 3.84796,7.07971 6,11c2.80591,5.11145 4.61383,7.297 7,10c1.47983,1.67633 1.69254,3.186 3,5c1.65381,2.29453 2.06601,2.87766 4,4c3.11847,1.80972 3.52814,3.98535 9,6c5.70816,2.10165 10,2 14,2c5,0 8,0 14,0c4,0 7,0 13,0c6,0 10.1181,0.6246 17,-1c6.1554,-1.45309 10,-3 15,-5c5,-2 7.22729,-3.78491 11,-8c4.27039,-4.77115 6.67944,-7.57111 9,-12c1.46765,-2.80109 3.34314,-4.87604 5,-10c1.26855,-3.9231 2.94006,-6.37537 6,-12c1.51123,-2.77782 0.56952,-4.133 2,-8c0.77582,-2.09717 2.14429,-2.93414 3,-5c1.21014,-2.92157 1.69257,-4.186 3,-6c1.65381,-2.29454 1.88153,-3.19028 5,-5c1.93402,-1.12234 3.82373,-2.48625 6,-3c2.91974,-0.68925 6,0 11,0c5,0 9,0 17,0c9,0 13.11133,-0.35495 20,2c5.09564,1.74199 6.91827,3.11214 11,6c5.88672,4.16493 8,6 14,12c5,5 7,8 10,11c2,2 3.10339,3.90634 4,5c2.28589,2.78833 2.19409,3.88855 5,9c2.15204,3.92029 3.34619,4.70547 5,7c1.30743,1.814 0.0979,2.82443 2,4c0.85065,0.52573 1,1 2,2c1,1 3,2 5,3c2,1 3.82373,2.48627 6,3c0.97327,0.22977 2,1 6,1c1,0 2.08026,-0.68927 5,0c2.17627,0.51373 2,1 4,1c1,0 2,0 2,0c1,-1 0.3869,-1.9176 3,-3c0.92389,-0.38269 1.48627,-0.82376 2,-3c0.68927,-2.91974 1,-3 1,-8c0,-4 0,-5 0,-9c0,-5 0,-8 0,-11c0,-3 -0.78986,-5.07843 -2,-8c-1.71143,-4.13171 -2.1731,-4.85274 -3,-6c-1.30743,-1.814 -1.52814,-3.11833 -2,-4c-1.70129,-3.17892 -3.94623,-3.05682 -5,-4c-4.77112,-4.27039 -6,-5 -8,-7c-4,-4 -6.15222,-4.23463 -8,-5c-1.30658,-0.5412 -1.797,-1.2565 -3,-2c-2.69,-1.66251 -3.76111,-2.41589 -7,-4c-2.8407,-1.38936 -4,-2 -7,-3c-3,-1 -3.59399,-1.513 -6,-3c-2.69,-1.66251 -4,-1 -8,-3c-2,-1 -3.82373,-2.48625 -6,-3c-2.91974,-0.68925 -6.00751,-0.87782 -7,-1c-4.09222,-0.50377 -5,-1 -9,-3c-2,-1 -3.18604,-0.69255 -5,-2c-1.14728,-0.8269 -2.87854,-1.49345 -6,-2c-3.94836,-0.64073 -5.90778,-1.49623 -10,-2c-2.97754,-0.36655 -5.87854,-0.49345 -9,-1c-2.96124,-0.48055 -4,0 -5,0c-3,0 -4.02246,-0.36655 -7,0c-4.09222,0.50377 -6.1593,1.61064 -9,3c-3.23889,1.58411 -5.64752,2.97252 -10,4c-0.97327,0.22975 -2.797,2.2565 -4,3c-2.69,1.66251 -4.37201,2.3851 -8,5c-2.29456,1.65381 -2.71899,3.31021 -6,6c-2.78833,2.28587 -3.55817,3.51929 -7,6c-1.81396,1.30745 -1.4505,3.45049 -4,6c-2.5495,2.54951 -3.71411,4.21167 -6,7c-1.79321,2.18735 -1.85272,3.1731 -3,4c-1.81396,1.30745 -2.29291,3.29289 -3,4c-0.70709,0.70711 -1.61731,1.07613 -2,2c-1.0824,2.61313 -2.10339,1.90633 -3,3c-2.28589,2.78833 -2.21167,2.71413 -5,5c-1.09369,0.89661 -1,1 -2,2c-1,1 -1.69342,2.4588 -3,3c-1.84778,0.76538 -2.18604,0.69254 -4,2c-1.14728,0.8269 -2.8244,1.0979 -4,3c-0.52576,0.85065 0.14728,1.1731 -1,2c-1.81396,1.30746 -2.69342,1.4588 -4,2c-1.84778,0.76538 -4,1 -7,1c-4,0 -5,0 -9,0c-3,0 -4.05164,0.64072 -8,0c-3.12143,-0.50653 -4.54916,-1.95517 -8,-3c-1.91418,-0.57956 -5.22937,-1.33197 -9,-3c-3.29733,-1.45865 -6.04025,-3.9502 -11,-8c-6.04968,-4.93976 -10.21167,-7.71413 -13,-10c-6.56201,-5.37958 -8.79489,-9.22021 -12,-12c-3.77728,-3.27602 -5,-5 -8,-8c-2,-2 -3,-5 -5,-7c-2,-2 -5.34619,-5.70546 -7,-8c-1.30746,-1.814 -2,-3 -3,-4c-1,-1 -1.07611,-0.61731 -2,-1c-1.30655,-0.5412 -0.87857,-1.49345 -4,-2c-0.98709,-0.16019 -1.82376,-0.48625 -4,-1c-0.97324,-0.22975 -2,0 -3,0c-1,0 -2,0 -5,0c-3,0 -4,0 -7,0c0,0 -3,0 -5,0c0,0 -2.82376,1.48625 -5,2c-1.9465,0.4595 -4,1 -7,1c-2,0 -4.82376,1.48625 -7,2c-1.9465,0.4595 -3.15225,0.23463 -5,1c-2.61313,1.0824 -4.74673,3.37134 -9,6c-3.80423,2.35114 -6.42334,4.42824 -12,9c-5.46835,4.48297 -6.88153,6.19028 -10,8c-1.93399,1.12234 -3.186,1.69255 -5,3c-2.29453,1.65381 -1.81265,2.2068 -4,4c-2.78833,2.28587 -3.85272,3.1731 -5,4c-1.814,1.30745 -2.38687,1.9176 -5,3c-1.84775,0.76537 -4,1 -6,1c-4,0 -5,1 -8,1c-5,0 -7,0 -12,0c-3,0 -4,0 -7,0c-3,0 -4.05164,-0.64073 -8,0c-3.12143,0.50655 -7,1 -10,1c-5,0 -5.05164,0.64073 -9,0c-3.12143,-0.50655 -4.02676,-0.77025 -5,-1c-2.17624,-0.51375 -1.85272,-1.1731 -3,-2c-3.62799,-2.6149 -4.3851,-2.37201 -7,-6c-1.65381,-2.29454 -2.95517,-2.54915 -4,-6c-0.57957,-1.91418 -0.84723,-3.04132 -2,-7c-0.88414,-3.03616 -2.19028,-4.88152 -4,-8c-1.12234,-1.93399 -1.1731,-2.85274 -2,-4c-1.30745,-1.814 -1.2565,-2.797 -2,-4c-1.66251,-2.68999 -1.34619,-2.70546 -3,-5c-1.30745,-1.814 -2,-5 -2,-5c-1,-1 -2.4588,-0.69344 -3,-2c-0.38269,-0.92387 -1.29289,-2.29289 -2,-3c-0.70711,-0.70711 -3,-1 -3,-1c-1,0 -1.29289,-0.29289 -2,-1c-1.41422,-1.41422 -2,0 -3,0c0,0 -1,0 -2,0c-1,0 -2,0 -3,0c0,0 -1,0 -1,0c-1,0 -2,0 -3,0c-1,0 -1,0 -2,0c0,0 -2,0 -2,0c-1,0 -2,0 -2,0c-1,0 -1,1 -2,1c0,0 -1,1 -1,1c-1,0 -1,0 -2,1c0,0 -1,0 -1,0c-1,2 -2,2 -2,2c0,0 -1,1 -1,1c0,1 -1,1 -1,2c0,0 0,1 -1,2c0,0 0,0 0,1c0,0 0,1 0,1c0,0 0,1 0,1c0,0 0,1 0,2c0,0 0.29289,0.29289 1,1c0.70711,0.70711 0,2 0,2c0,0 0.29289,0.29289 1,1c0.70711,0.70711 0,1 0,2c0,0 0,0 0,1l0,0l0,1l0,0" id="svg_115" stroke-width="6" stroke="#884D58" fill="none"/>
  <path d="m51,32.62854c-1,1 -1,1 -1,1c-1,1 -2.70546,2.34619 -5,4c-3.62799,2.6149 -7.82375,4.48625 -10,5c-0.97325,0.22975 -3,1 -3,1c-1,1 -2.01291,0.83981 -3,1c-3.12144,0.50655 -4.82375,1.48625 -7,2c-2.91975,0.68925 -5,0 -5,0c-1,0 -2,0 -2,0c-1,0 -2,0 -2,0c-1,0 -2,0 -2,0c0,0 -1,0 -1,0l0,0" id="svg_116" stroke-width="6" stroke="#884D58" fill="none"/>
  <path d="m94,58.62854c0,0 1.07611,0.61731 2,1c1.30655,0.5412 3.69254,3.186 5,5c1.65381,2.29453 2.69254,3.186 4,5c0.8269,1.14728 2,3 2,3c1,4 2.4588,6.69345 3,8c1.14804,2.77164 1,6 1,10c0,1 -0.38269,1.07611 0,2c0.5412,1.30655 1,2 1,3c0,1 0,3 0,3c0,1 0,1 0,2c0,0 0,0 0,0c0,1 0,1 0,2c0,0 0,0 0,1l0,0l1,-1" id="svg_117" stroke-width="6" stroke="#884D58" fill="none"/>
  <path d="m173,24.62854c0,0 1.4588,0.69344 2,2c0.38269,0.92387 1.07611,1.61731 2,2c1.30655,0.5412 2,1 3,2c1,1 2.4588,0.69344 3,2c0.38269,0.92387 0.4588,0.69344 1,2c0.38269,0.92387 1,1 1,2c0,0 0,1 0,1c1,0 0.61731,0.07613 1,1c0.5412,1.30656 1,1 1,2l0,0l0,0l2,0" id="svg_118" stroke-width="6" stroke="#884D58" fill="none"/>
  <path d="m267,44.62854c0,0 0,1 0,1c-1,1 -1,1 -2,2c0,0 -1,1 -2,1c0,0 -1,1 -1,1c-1,0 -1,0 -2,0c-1,0 -2,1 -3,1c-1,0 -1,0 -3,1c0,0 0,0 0,0c-1,0 -1,0 -2,0c0,0 -1,0 -1,1l0,0" id="svg_119" stroke-width="6" stroke="#884D58" fill="none"/>
  <path d="m307,78.62854c0,0 0.61731,2.07611 1,3c1.0824,2.61313 3.31021,3.71899 6,7c2.28589,2.78833 2.724,4.22272 6,8c0.92657,1.06836 2.9176,3.38687 4,6c0.38269,0.92389 0.4588,2.69345 1,4c0.38269,0.92389 0,2 0,2c0,1 0,1 0,1c0,0 0,1 0,1c0,0 0,1 0,2l0,0" id="svg_120" stroke-width="6" stroke="#884D58" fill="none"/>
  <path d="m374,45.62854c1,0 3.01361,-0.32993 7,0c6.06201,0.50171 9,1 10,1c2,0 3,0 3,0c1,1 1,1 2,1c1,0 2,1 2,1c1,0 1,1 1,1c0,1 1,1 1,1c0,0 0,0 0,0l0,0l1,0" id="svg_121" stroke-width="6" stroke="#884D58" fill="none"/>
  <path d="m459,10.62854c1,0 1,1 1,2c0,0 0,2 0,3c0,2 0,2 0,3c0,1 0,2 0,3c0,0 0,1 0,4c0,2 0,3 0,3c-1,1 -0.61731,2.07613 -1,3c-0.5412,1.30656 -1,1 -2,2c0,0 -0.61731,0.07613 -1,1c-0.5412,1.30656 -1,1 -1,1c-1,0 -2,1 -3,1l1,0" id="svg_122" stroke-width="6" stroke="#884D58" fill="none"/>
  <path d="m534,44.62854c0,0 -1,0 -1,1c0,0 -1.4588,0.69344 -2,2c-0.38269,0.92387 -1.20679,1.81265 -3,4c-2.28589,2.78833 -3.29291,3.29289 -4,4c-0.70709,0.70711 -1,1 -1,1c-1,0 -1,1 -3,2c0,0 -1,1 -3,1c0,0 0,0 -2,1c0,0 -0.82373,1.48625 -3,2c-0.97327,0.22977 -3,1 -3,1c-1,0 -1,0 -2,1c0,0 -1,0 -2,0c-1,0 -2,0 -2,0c-1,1 -1,1 -1,1l-1,0l-1,0l0,0" id="svg_123" stroke-width="6" stroke="#884D58" fill="none"/>
 </g>
</svg>